<svg xmlns="http://www.w3.org/2000/svg" viewBox="0 0 480 360" role="img" aria-label="Syria map">
  <defs>
    <linearGradient id="bg" x1="0%" y1="0%" x2="100%" y2="100%">
      <stop offset="0%" stop-color="#0c4a6e" stop-opacity="0.12"/>
      <stop offset="100%" stop-color="#0369a1" stop-opacity="0.28"/>
    </linearGradient>
    <linearGradient id="land" x1="15%" y1="5%" x2="85%" y2="95%">
      <stop offset="0%" stop-color="#7dd3fc"/>
      <stop offset="50%" stop-color="#0ea5e9"/>
      <stop offset="100%" stop-color="#0369a1"/>
    </linearGradient>
    <filter id="glow"><feGaussianBlur stdDeviation="2" result="b"/><feMerge><feMergeNode in="b"/><feMergeNode in="SourceGraphic"/></feMerge></filter>
  </defs>
  <rect width="480" height="360" fill="url(#bg)" rx="16"/>
  <g stroke="#94a3b8" stroke-opacity="0.18" stroke-width="0.8">
    <line x1="36" y1="72" x2="444" y2="72"/><line x1="36" y1="180" x2="444" y2="180"/><line x1="36" y1="288" x2="444" y2="288"/>
    <line x1="96" y1="36" x2="96" y2="324"/><line x1="192" y1="36" x2="192" y2="324"/><line x1="288" y1="36" x2="288" y2="324"/><line x1="384" y1="36" x2="384" y2="324"/>
  </g>
  <path d="M 348.4 38.5 L 348.4 38.5 L 348.7 38.3 L 348.7 38.3 L 349.0 38.3 L 349.1 38.3 L 349.1 38.3 L 349.2 38.3 L 349.3 38.3 L 349.7 38.4 L 350.0 38.6 L 350.1 38.7 L 350.2 38.8 L 350.5 38.8 L 350.6 38.8 L 350.9 38.7 L 350.9 38.7 L 351.1 38.6 L 351.6 38.3 L 351.6 38.4 L 351.8 38.6 L 352.0 39.2 L 352.1 39.4 L 352.1 39.4 L 352.6 39.6 L 352.8 39.7 L 353.1 40.4 L 353.4 40.6 L 353.5 40.7 L 354.2 40.9 L 354.4 41.3 L 354.5 41.4 L 354.5 41.5 L 354.6 42.0 L 354.5 42.3 L 354.4 42.4 L 354.0 42.8 L 353.7 43.1 L 353.5 43.9 L 353.5 44.4 L 353.6 44.6 L 354.0 45.9 L 354.1 46.0 L 354.1 46.1 L 354.3 46.3 L 354.5 46.6 L 354.5 46.6 L 354.5 46.9 L 354.5 47.3 L 354.5 47.3 L 354.5 47.4 L 354.6 47.7 L 354.4 48.6 L 354.3 49.1 L 354.3 49.1 L 354.5 49.2 L 354.7 49.3 L 354.8 49.4 L 354.9 49.5 L 354.9 49.6 L 355.3 49.8 L 355.6 50.1 L 355.7 50.2 L 355.8 50.5 L 355.8 50.9 L 355.8 50.9 L 353.5 53.2 L 350.6 56.2 L 350.2 56.6 L 350.0 56.8 L 349.4 57.4 L 349.4 57.5 L 347.2 59.9 L 346.0 61.4 L 345.9 61.5 L 345.9 61.5 L 345.9 61.5 L 345.6 61.7 L 344.2 63.1 L 344.1 63.1 L 343.4 64.1 L 342.0 65.9 L 341.6 66.3 L 340.9 67.1 L 340.7 67.2 L 340.7 67.3 L 340.6 67.4 L 340.5 67.5 L 339.4 68.7 L 339.3 68.9 L 339.1 69.1 L 337.2 71.3 L 335.9 72.9 L 335.9 72.9 L 335.9 72.9 L 334.7 74.4 L 331.7 77.0 L 331.3 77.4 L 330.5 78.0 L 329.9 78.6 L 329.5 78.9 L 329.5 78.9 L 329.3 79.0 L 326.5 79.7 L 326.4 79.7 L 324.8 80.1 L 323.8 80.4 L 323.8 80.4 L 323.7 80.4 L 323.7 80.4 L 316.4 81.8 L 311.9 82.7 L 309.8 83.0 L 309.8 83.1 L 309.5 83.6 L 309.5 83.6 L 308.5 85.5 L 305.9 90.1 L 305.1 91.4 L 304.3 92.8 L 304.3 92.8 L 304.3 93.3 L 304.3 93.7 L 304.3 95.3 L 304.2 97.1 L 304.2 98.3 L 304.0 99.8 L 303.5 104.4 L 303.0 108.3 L 302.9 108.8 L 302.9 109.1 L 302.8 109.2 L 302.6 110.5 L 302.9 111.1 L 303.1 111.6 L 306.1 118.3 L 307.8 121.9 L 308.4 123.3 L 308.5 124.7 L 308.5 125.2 L 308.9 132.5 L 309.0 135.2 L 306.6 139.1 L 304.0 143.1 L 303.7 143.6 L 303.7 144.2 L 303.6 145.6 L 303.4 148.5 L 303.4 149.4 L 303.1 150.4 L 302.5 152.8 L 302.2 153.9 L 301.8 155.2 L 301.8 155.3 L 301.8 155.4 L 301.4 157.4 L 301.2 158.6 L 301.2 159.0 L 301.2 159.1 L 301.0 159.9 L 300.7 164.1 L 300.8 165.4 L 300.8 166.3 L 300.8 166.5 L 300.8 166.6 L 300.8 167.0 L 300.9 167.2 L 300.9 168.5 L 301.1 171.7 L 301.2 174.4 L 301.2 174.7 L 301.2 175.3 L 301.2 176.0 L 301.2 177.5 L 301.2 179.8 L 301.3 180.8 L 301.4 181.7 L 301.5 182.9 L 301.6 184.1 L 301.5 184.3 L 301.5 184.5 L 299.0 188.1 L 298.9 188.2 L 298.2 189.2 L 297.0 191.0 L 296.2 192.9 L 296.2 193.0 L 296.0 193.4 L 295.6 194.4 L 292.8 201.1 L 292.7 201.4 L 292.6 201.5 L 292.0 203.2 L 291.8 203.4 L 291.7 203.5 L 291.4 203.6 L 291.3 203.7 L 291.3 203.8 L 291.2 203.9 L 291.2 203.9 L 291.0 205.0 L 290.5 205.3 L 290.3 205.4 L 255.7 225.1 L 236.8 235.8 L 203.7 254.6 L 203.7 254.6 L 203.7 254.6 L 201.9 255.6 L 186.1 264.5 L 139.5 294.3 L 123.4 304.5 L 105.8 315.7 L 105.8 315.7 L 101.8 318.3 L 100.4 319.2 L 99.2 320.0 L 98.4 320.5 L 98.1 320.7 L 96.1 321.9 L 95.4 322.4 L 95.4 322.4 L 95.4 322.4 L 95.3 322.5 L 95.2 322.5 L 94.6 323.1 L 93.7 324.0 L 89.9 323.4 L 89.0 323.2 L 88.5 323.1 L 88.3 323.1 L 87.7 323.3 L 87.6 323.4 L 87.5 323.4 L 87.5 323.4 L 87.5 323.4 L 87.2 323.0 L 86.9 322.7 L 84.6 322.4 L 82.5 322.1 L 80.2 321.8 L 79.9 321.8 L 79.8 321.8 L 79.8 321.8 L 79.8 321.8 L 77.9 321.5 L 77.9 321.5 L 77.5 321.1 L 77.4 321.1 L 77.0 320.9 L 76.9 320.8 L 76.1 320.6 L 73.6 320.3 L 73.2 320.0 L 71.9 318.7 L 70.1 316.9 L 68.9 316.0 L 68.9 316.0 L 68.2 315.4 L 66.5 314.2 L 66.4 314.2 L 66.4 314.1 L 65.7 313.5 L 64.5 312.5 L 63.9 312.1 L 63.9 312.1 L 63.7 312.1 L 63.7 312.1 L 62.9 312.6 L 62.8 312.7 L 62.7 312.7 L 62.0 312.5 L 60.6 312.4 L 60.4 312.4 L 60.3 312.4 L 60.1 312.4 L 60.0 312.4 L 59.9 312.4 L 59.5 312.4 L 58.5 312.7 L 58.4 311.7 L 58.2 311.0 L 57.6 309.5 L 57.0 308.8 L 56.4 308.2 L 56.0 307.9 L 55.9 307.7 L 56.1 306.4 L 56.1 305.7 L 55.9 305.1 L 55.8 304.9 L 55.8 304.9 L 55.8 304.9 L 55.8 304.9 L 55.8 304.9 L 55.8 304.9 L 55.2 304.7 L 54.7 304.6 L 53.9 304.7 L 53.4 304.5 L 53.0 304.1 L 53.0 304.1 L 52.9 304.0 L 53.4 303.5 L 53.4 303.0 L 53.3 302.8 L 53.0 302.7 L 52.5 302.7 L 52.0 302.3 L 51.8 302.1 L 51.6 301.5 L 51.3 301.2 L 51.0 301.1 L 50.7 301.3 L 50.5 301.3 L 49.9 301.1 L 49.6 301.1 L 49.6 301.1 L 49.6 301.1 L 49.3 301.0 L 48.9 300.7 L 48.9 300.7 L 48.8 300.6 L 48.5 300.5 L 47.7 300.5 L 47.7 300.5 L 47.7 300.5 L 47.0 300.8 L 46.7 300.9 L 46.7 300.9 L 46.7 300.9 L 46.7 300.9 L 46.4 300.9 L 46.2 300.8 L 46.1 300.8 L 46.1 300.8 L 46.0 300.8 L 45.7 300.6 L 45.7 300.6 L 45.6 300.3 L 45.2 300.4 L 45.2 300.4 L 45.1 300.4 L 45.1 300.4 L 45.1 300.3 L 45.0 300.1 L 45.2 299.7 L 45.2 299.6 L 45.2 299.6 L 45.2 299.6 L 45.2 299.5 L 45.2 299.3 L 44.9 299.2 L 44.0 299.5 L 43.8 299.6 L 43.3 299.7 L 43.3 299.7 L 43.1 299.9 L 43.1 299.9 L 43.1 300.0 L 42.9 300.3 L 42.9 300.3 L 42.9 300.3 L 42.9 300.3 L 42.7 300.5 L 42.4 300.7 L 42.4 300.7 L 42.3 300.7 L 41.9 300.7 L 41.9 300.7 L 41.8 300.8 L 40.8 301.1 L 40.5 301.3 L 40.2 301.6 L 40.0 301.8 L 39.8 302.0 L 39.5 302.1 L 38.9 302.8 L 38.9 302.8 L 38.9 302.8 L 38.9 302.8 L 38.8 303.0 L 38.7 303.0 L 38.7 303.0 L 38.7 303.0 L 38.7 303.0 L 38.9 303.4 L 38.6 303.4 L 38.4 303.6 L 38.1 303.3 L 37.9 303.4 L 37.7 303.6 L 37.5 303.8 L 37.4 303.6 L 37.0 303.3 L 37.0 303.3 L 37.0 303.2 L 37.0 303.2 L 37.0 303.2 L 37.0 303.1 L 37.0 302.9 L 37.0 302.8 L 37.1 302.5 L 37.1 302.4 L 37.1 302.3 L 37.1 302.2 L 37.5 302.0 L 37.6 301.9 L 37.7 301.7 L 37.7 301.7 L 37.7 301.3 L 37.7 300.9 L 37.7 300.9 L 37.7 300.9 L 37.7 300.9 L 37.8 300.6 L 37.8 300.5 L 37.9 300.4 L 38.0 300.0 L 38.0 299.8 L 38.0 299.8 L 38.0 299.7 L 38.0 299.7 L 38.0 299.7 L 38.0 299.5 L 38.0 299.5 L 38.0 299.4 L 38.3 298.2 L 37.9 297.3 L 38.0 296.4 L 37.7 296.4 L 37.6 296.3 L 37.4 296.3 L 37.5 295.7 L 37.5 295.7 L 37.3 295.0 L 37.3 294.9 L 37.4 294.9 L 37.5 294.8 L 37.5 294.8 L 37.5 294.8 L 37.5 294.8 L 37.5 294.8 L 37.5 294.7 L 37.5 294.7 L 37.6 294.7 L 37.7 294.6 L 37.7 294.6 L 37.7 294.2 L 37.5 293.7 L 37.4 293.4 L 37.4 293.3 L 37.4 293.3 L 37.4 293.1 L 37.0 292.5 L 36.7 292.2 L 36.4 291.8 L 36.0 291.5 L 36.0 291.3 L 36.1 291.0 L 36.3 291.0 L 36.4 291.0 L 36.5 290.9 L 36.5 290.9 L 36.6 290.6 L 36.5 290.3 L 36.7 289.1 L 36.7 288.9 L 36.7 288.1 L 36.8 287.9 L 36.8 287.9 L 36.8 287.8 L 36.8 287.8 L 36.9 286.2 L 36.8 285.9 L 36.9 285.2 L 36.8 284.9 L 36.9 284.2 L 37.3 283.3 L 37.6 282.1 L 37.5 281.9 L 37.5 281.3 L 37.7 280.9 L 37.7 280.9 L 37.7 280.9 L 37.7 280.9 L 37.9 278.7 L 37.9 278.7 L 38.3 277.8 L 38.7 277.0 L 38.3 275.0 L 38.4 274.0 L 38.5 273.7 L 38.5 272.9 L 38.5 272.9 L 38.5 272.9 L 38.7 272.6 L 38.7 272.6 L 38.8 272.6 L 38.9 272.5 L 39.0 272.4 L 39.0 272.4 L 39.1 272.4 L 39.1 272.4 L 39.1 272.4 L 39.1 272.4 L 39.3 272.3 L 39.3 272.3 L 39.3 272.0 L 39.3 271.8 L 39.1 271.7 L 38.7 271.7 L 38.7 271.7 L 38.7 271.7 L 38.0 271.6 L 37.8 271.6 L 37.8 271.6 L 37.8 271.6 L 37.6 271.7 L 37.5 271.7 L 37.4 271.8 L 36.6 272.0 L 36.5 272.0 L 36.5 272.0 L 36.5 272.0 L 36.5 271.9 L 36.5 271.9 L 36.4 271.9 L 36.4 271.9 L 36.4 271.9 L 36.4 271.9 L 36.4 271.9 L 36.4 271.9 L 36.4 271.9 L 36.4 271.9 L 36.4 271.9 L 36.5 271.8 L 36.5 271.8 L 36.5 271.8 L 36.5 271.8 L 36.5 271.8 L 36.5 271.8 L 36.5 271.8 L 36.5 271.8 L 36.5 271.7 L 36.5 271.7 L 36.5 271.6 L 36.5 271.6 L 36.5 271.6 L 36.5 271.5 L 36.5 271.5 L 36.5 271.5 L 36.5 271.5 L 36.5 271.4 L 36.5 271.4 L 36.4 271.4 L 36.4 271.4 L 36.4 271.4 L 36.4 271.4 L 36.4 271.4 L 36.3 271.4 L 36.3 271.4 L 36.3 271.3 L 36.3 271.3 L 36.3 271.3 L 36.3 271.3 L 36.3 271.3 L 36.3 271.3 L 36.3 271.3 L 36.3 271.2 L 36.3 271.2 L 36.3 271.2 L 36.3 271.2 L 36.3 271.2 L 36.3 271.2 L 36.3 271.2 L 36.3 271.2 L 36.3 271.2 L 36.4 271.2 L 36.4 271.2 L 36.4 271.2 L 36.4 271.2 L 36.4 271.1 L 36.4 271.1 L 36.4 271.1 L 36.4 271.1 L 36.4 271.1 L 36.4 271.1 L 36.4 271.0 L 36.4 271.0 L 36.4 271.0 L 36.4 271.0 L 36.4 271.0 L 36.4 271.0 L 36.4 271.0 L 36.4 271.0 L 36.4 271.0 L 36.4 271.0 L 36.5 270.9 L 36.5 270.9 L 36.4 270.9 L 36.4 270.9 L 36.4 270.9 L 36.4 270.9 L 36.4 270.9 L 36.4 270.9 L 36.4 270.9 L 36.4 270.9 L 36.4 270.8 L 36.4 270.8 L 36.4 270.8 L 36.4 270.8 L 36.4 270.8 L 36.4 270.8 L 36.4 270.7 L 36.4 270.7 L 36.4 270.6 L 36.4 270.6 L 36.4 270.6 L 36.4 270.5 L 36.3 270.5 L 36.3 270.5 L 36.3 270.5 L 36.3 270.5 L 36.3 270.5 L 36.3 270.4 L 36.3 270.4 L 36.3 270.4 L 36.3 270.4 L 36.3 270.4 L 36.3 270.3 L 36.4 270.3 L 36.4 270.3 L 36.4 270.3 L 36.4 270.3 L 36.5 270.3 L 36.5 270.2 L 36.5 270.2 L 36.5 270.2 L 36.6 270.2 L 36.6 270.2 L 36.7 270.2 L 36.7 270.2 L 36.7 270.2 L 36.8 270.1 L 36.9 270.1 L 36.9 270.1 L 36.9 270.1 L 37.0 270.0 L 37.0 270.0 L 37.0 270.0 L 37.1 270.0 L 37.1 270.0 L 37.2 270.0 L 37.2 269.9 L 37.3 269.9 L 37.3 269.9 L 37.4 269.9 L 37.4 269.9 L 37.6 269.9 L 37.6 270.0 L 37.7 270.0 L 37.8 270.0 L 37.8 270.1 L 37.9 270.1 L 38.0 270.1 L 38.1 270.2 L 38.1 270.2 L 38.1 270.2 L 38.1 270.2 L 38.1 270.2 L 38.1 270.2 L 38.2 270.2 L 38.2 270.1 L 38.3 270.0 L 38.3 270.0 L 38.4 269.9 L 38.4 269.9 L 38.4 269.9 L 38.4 269.9 L 38.5 269.8 L 38.5 269.8 L 38.6 269.8 L 38.6 269.7 L 38.7 269.6 L 38.8 269.6 L 38.9 269.5 L 38.9 269.5 L 38.9 269.5 L 38.9 269.5 L 38.9 269.5 L 38.9 269.5 L 38.9 269.5 L 39.0 269.4 L 39.0 269.4 L 39.0 269.4 L 39.1 269.3 L 39.2 269.3 L 39.2 269.3 L 39.3 269.2 L 39.3 269.1 L 39.3 269.1 L 39.4 269.1 L 39.4 269.1 L 39.4 269.0 L 39.4 269.0 L 39.5 269.0 L 39.5 269.0 L 39.5 269.0 L 39.6 269.0 L 39.6 269.0 L 39.6 269.0 L 39.7 269.0 L 39.7 269.0 L 39.7 269.0 L 39.7 268.9 L 39.8 268.9 L 39.8 268.9 L 39.9 268.8 L 39.9 268.8 L 40.0 268.8 L 40.1 268.7 L 40.1 268.7 L 40.2 268.7 L 40.3 268.6 L 40.3 268.6 L 40.4 268.6 L 40.4 268.6 L 40.4 268.5 L 40.5 268.5 L 40.5 268.5 L 40.5 268.4 L 40.5 268.4 L 40.6 268.3 L 40.6 268.3 L 40.6 268.3 L 40.6 268.2 L 40.6 268.1 L 40.6 268.1 L 40.6 268.0 L 40.6 268.0 L 40.6 268.0 L 40.6 267.9 L 40.6 267.8 L 40.7 267.7 L 40.7 267.7 L 40.7 267.7 L 40.7 267.7 L 40.7 267.6 L 40.7 267.6 L 40.7 267.5 L 40.7 267.5 L 40.7 267.5 L 40.7 267.4 L 40.8 267.4 L 40.8 267.4 L 40.8 267.4 L 40.8 267.3 L 40.8 267.3 L 40.9 267.3 L 40.9 267.3 L 40.9 267.3 L 40.9 267.3 L 40.9 267.2 L 40.9 267.2 L 40.9 267.2 L 41.0 267.2 L 41.0 267.2 L 41.0 267.2 L 41.0 267.2 L 41.1 267.2 L 41.1 267.1 L 41.2 267.1 L 41.2 267.1 L 41.2 267.1 L 41.3 267.1 L 41.3 267.1 L 41.4 267.1 L 41.4 267.1 L 41.5 267.1 L 41.6 267.1 L 41.6 267.1 L 41.7 267.2 L 41.8 267.2 L 41.9 267.3 L 41.9 267.3 L 42.0 267.3 L 42.0 267.3 L 42.1 267.3 L 42.1 267.3 L 42.1 267.3 L 42.2 267.3 L 42.3 267.3 L 42.3 267.3 L 42.3 267.3 L 42.4 267.3 L 42.4 267.2 L 42.4 267.2 L 42.4 267.2 L 42.4 267.2 L 42.4 267.2 L 42.4 267.2 L 42.4 267.2 L 42.5 267.2 L 42.5 267.2 L 42.5 267.2 L 42.5 267.1 L 42.5 267.1 L 42.6 267.1 L 42.6 267.1 L 42.7 267.1 L 42.7 267.1 L 42.8 267.1 L 42.8 267.0 L 42.9 267.0 L 42.9 267.0 L 42.9 267.0 L 43.0 267.0 L 43.0 267.0 L 43.1 267.0 L 43.1 266.9 L 43.2 266.9 L 43.2 266.9 L 43.3 266.9 L 43.3 266.9 L 43.4 266.9 L 43.4 266.8 L 43.5 266.8 L 43.6 266.7 L 43.6 266.7 L 43.7 266.7 L 43.7 266.7 L 43.7 266.7 L 43.8 266.6 L 43.8 266.6 L 43.9 266.6 L 43.9 266.6 L 43.9 266.6 L 44.0 266.5 L 44.1 266.5 L 44.1 266.5 L 44.2 266.4 L 44.2 266.4 L 44.2 266.4 L 44.3 266.4 L 44.3 266.3 L 44.4 266.3 L 44.5 266.2 L 44.5 266.2 L 44.6 266.2 L 44.6 266.2 L 44.6 266.1 L 44.6 266.1 L 44.7 266.1 L 44.7 266.0 L 44.7 266.0 L 44.8 266.0 L 44.8 266.0 L 44.9 265.9 L 44.9 265.9 L 44.9 265.9 L 44.9 265.8 L 44.9 265.8 L 45.0 265.8 L 45.1 265.7 L 45.1 265.7 L 45.2 265.7 L 45.3 265.6 L 45.3 265.6 L 45.3 265.6 L 45.4 265.6 L 45.4 265.6 L 45.4 265.6 L 45.4 265.5 L 45.5 265.5 L 45.5 265.5 L 45.5 265.4 L 45.5 265.4 L 45.6 265.4 L 45.6 265.3 L 45.6 265.3 L 45.6 265.2 L 45.6 265.1 L 45.6 265.0 L 45.6 264.9 L 45.6 264.8 L 45.6 264.8 L 45.6 264.7 L 45.6 264.6 L 45.6 264.6 L 45.6 264.5 L 45.7 264.4 L 45.7 264.3 L 45.7 264.2 L 45.7 264.1 L 45.7 264.0 L 45.7 264.0 L 45.7 263.9 L 45.7 263.8 L 45.7 263.7 L 45.8 263.7 L 45.8 263.6 L 45.8 263.6 L 45.8 263.6 L 45.8 263.5 L 45.8 263.5 L 45.9 263.4 L 45.9 263.4 L 46.0 263.3 L 46.0 263.3 L 46.0 263.2 L 46.1 263.2 L 46.1 263.2 L 46.2 263.1 L 46.2 263.1 L 46.2 263.1 L 46.2 263.0 L 46.2 263.0 L 46.2 263.0 L 46.3 263.0 L 46.4 263.0 L 46.4 262.9 L 46.5 262.9 L 46.5 262.9 L 46.5 262.9 L 46.5 262.8 L 46.6 262.8 L 46.6 262.8 L 46.7 262.7 L 46.8 262.7 L 46.8 262.6 L 46.9 262.6 L 46.9 262.6 L 46.9 262.6 L 47.0 262.5 L 47.1 262.5 L 47.1 262.5 L 47.1 262.5 L 47.2 262.4 L 47.3 262.4 L 47.4 262.3 L 47.4 262.3 L 47.4 262.3 L 47.5 262.3 L 47.5 262.2 L 47.6 262.2 L 47.6 262.2 L 47.6 262.2 L 47.7 262.2 L 47.8 262.1 L 47.9 262.1 L 47.9 262.0 L 48.0 262.0 L 48.1 262.0 L 48.2 261.9 L 48.2 261.9 L 48.2 261.9 L 48.3 261.9 L 48.3 261.8 L 48.3 261.8 L 48.4 261.8 L 48.4 261.8 L 48.4 261.8 L 48.5 261.7 L 48.5 261.7 L 48.6 261.7 L 48.7 261.7 L 48.7 261.6 L 48.8 261.6 L 48.8 261.6 L 48.8 261.6 L 48.9 261.5 L 49.0 261.5 L 49.0 261.5 L 49.0 261.4 L 49.1 261.4 L 49.1 261.4 L 49.2 261.3 L 49.3 261.3 L 49.4 261.2 L 49.4 261.2 L 49.4 261.2 L 49.5 261.1 L 49.5 261.1 L 49.5 261.1 L 49.6 261.0 L 49.7 261.0 L 49.7 260.9 L 49.8 260.9 L 49.8 260.9 L 49.8 260.8 L 49.9 260.8 L 49.9 260.7 L 50.0 260.6 L 50.0 260.6 L 50.0 260.6 L 50.0 260.6 L 50.1 260.5 L 50.1 260.5 L 50.2 260.4 L 50.2 260.4 L 50.2 260.4 L 50.3 260.3 L 50.3 260.3 L 50.4 260.3 L 50.4 260.2 L 50.5 260.1 L 50.6 260.1 L 50.7 260.0 L 50.8 259.9 L 50.8 259.9 L 50.9 259.9 L 50.9 259.8 L 51.0 259.8 L 51.0 259.8 L 51.0 259.8 L 51.1 259.8 L 51.1 259.7 L 51.2 259.7 L 51.2 259.6 L 51.2 259.6 L 51.3 259.5 L 51.3 259.5 L 51.3 259.5 L 51.4 259.5 L 51.4 259.4 L 51.5 259.3 L 51.6 259.2 L 51.7 259.2 L 51.7 259.2 L 51.7 259.1 L 51.7 259.1 L 51.7 259.1 L 51.8 259.0 L 51.8 259.0 L 51.8 259.0 L 51.9 258.9 L 51.9 258.9 L 51.9 258.8 L 51.9 258.6 L 51.9 258.6 L 51.9 258.4 L 51.9 258.3 L 51.9 258.0 L 51.9 257.9 L 51.9 257.8 L 51.9 257.6 L 51.9 257.6 L 51.9 257.5 L 51.9 257.4 L 51.9 257.4 L 51.9 257.3 L 51.9 257.2 L 51.9 257.2 L 51.9 257.2 L 51.8 257.1 L 51.7 257.1 L 51.7 257.1 L 51.6 257.0 L 51.6 257.0 L 51.5 257.0 L 51.4 256.9 L 51.4 256.9 L 51.3 256.8 L 51.3 256.8 L 51.3 256.8 L 51.3 256.8 L 51.3 256.8 L 51.3 256.7 L 51.3 256.7 L 51.3 256.7 L 51.3 256.6 L 51.3 256.6 L 51.3 256.6 L 51.3 256.6 L 51.3 256.5 L 51.3 256.5 L 51.3 256.5 L 51.3 256.5 L 51.4 256.4 L 51.4 256.4 L 51.4 256.4 L 51.5 256.3 L 51.5 256.3 L 51.5 256.3 L 51.6 256.2 L 51.6 256.2 L 51.6 256.2 L 51.6 256.2 L 51.7 256.1 L 51.8 256.1 L 51.8 256.0 L 51.9 256.0 L 51.9 256.0 L 51.9 256.0 L 51.9 255.9 L 52.1 255.9 L 52.3 255.8 L 52.5 255.8 L 52.6 255.8 L 52.7 255.8 L 52.7 255.7 L 52.7 255.7 L 52.7 255.7 L 52.8 255.7 L 52.8 255.7 L 52.8 255.7 L 52.8 255.6 L 52.8 255.6 L 52.8 255.5 L 52.9 255.5 L 52.9 255.5 L 53.0 255.4 L 53.0 255.4 L 53.1 255.4 L 53.1 255.4 L 53.2 255.3 L 53.2 255.3 L 53.3 255.3 L 53.3 255.4 L 53.3 255.4 L 53.3 255.4 L 53.5 255.4 L 53.6 255.5 L 53.7 255.5 L 53.7 255.5 L 53.8 255.6 L 53.8 255.6 L 53.8 255.6 L 53.9 255.6 L 53.9 255.6 L 53.9 255.6 L 53.9 255.5 L 54.0 255.5 L 54.1 255.5 L 54.1 255.5 L 54.2 255.4 L 54.2 255.4 L 54.2 255.4 L 54.2 255.4 L 54.3 255.4 L 54.4 255.3 L 54.5 255.3 L 54.5 255.3 L 54.6 255.2 L 54.6 255.2 L 54.8 255.1 L 54.9 255.1 L 54.9 255.1 L 55.0 255.0 L 55.0 255.0 L 55.1 255.0 L 55.1 255.0 L 55.2 255.0 L 55.3 255.0 L 55.3 255.1 L 55.3 255.1 L 55.4 255.1 L 55.5 255.1 L 55.5 255.1 L 55.5 255.1 L 55.6 255.1 L 55.7 255.1 L 55.7 255.0 L 55.7 255.0 L 55.7 254.9 L 55.8 254.9 L 55.8 254.8 L 55.8 254.8 L 55.8 254.8 L 55.8 254.8 L 55.8 254.7 L 55.9 254.7 L 55.9 254.6 L 56.0 254.5 L 56.0 254.5 L 56.1 254.4 L 56.1 254.3 L 56.1 254.3 L 56.1 254.3 L 56.1 254.3 L 56.2 254.2 L 56.3 254.2 L 56.3 254.2 L 56.3 254.2 L 56.3 254.1 L 56.5 254.0 L 56.6 253.9 L 56.6 253.8 L 56.7 253.7 L 56.8 253.7 L 56.8 253.7 L 56.8 253.6 L 56.8 253.6 L 56.9 253.6 L 56.9 253.5 L 56.9 253.5 L 56.9 253.5 L 56.9 253.5 L 56.9 253.5 L 57.0 253.5 L 57.0 253.5 L 57.0 253.4 L 57.1 253.4 L 57.1 253.3 L 57.1 253.3 L 57.1 253.3 L 57.2 253.3 L 57.2 253.3 L 57.2 253.2 L 57.2 253.2 L 57.2 253.1 L 57.2 253.1 L 57.2 253.1 L 57.2 253.0 L 57.2 252.9 L 57.2 252.9 L 57.1 252.8 L 57.1 252.8 L 57.1 252.8 L 57.1 252.6 L 57.1 252.6 L 57.0 252.5 L 57.0 252.5 L 56.9 252.4 L 56.9 252.4 L 56.9 252.3 L 56.8 252.2 L 56.7 252.1 L 56.6 252.0 L 56.5 252.0 L 56.4 251.9 L 56.3 251.8 L 56.3 251.8 L 56.2 251.7 L 56.2 251.7 L 56.1 251.6 L 56.0 251.6 L 55.9 251.5 L 55.8 251.4 L 55.7 251.3 L 55.7 251.3 L 55.7 251.3 L 55.7 251.3 L 55.6 251.3 L 55.6 251.3 L 55.5 251.2 L 55.4 251.1 L 55.4 251.1 L 55.3 251.0 L 55.3 251.0 L 55.3 251.0 L 55.3 251.0 L 55.2 250.9 L 55.2 250.9 L 55.1 250.9 L 55.1 250.9 L 55.0 250.9 L 54.9 250.9 L 54.9 250.9 L 54.9 250.9 L 54.8 250.9 L 54.8 250.9 L 54.8 250.9 L 54.7 250.9 L 54.6 250.9 L 54.6 250.9 L 54.6 250.9 L 54.5 250.9 L 54.5 250.9 L 54.4 250.9 L 54.4 250.9 L 54.4 250.9 L 54.2 250.8 L 54.1 250.7 L 54.0 250.7 L 54.0 250.6 L 54.0 250.6 L 54.0 250.6 L 53.9 250.5 L 53.9 250.4 L 53.9 250.4 L 53.9 250.4 L 53.9 250.4 L 53.8 250.4 L 53.8 250.3 L 53.8 250.3 L 53.7 250.3 L 53.7 250.2 L 53.7 250.1 L 53.7 250.1 L 53.6 250.1 L 53.5 250.0 L 53.5 250.0 L 53.5 250.0 L 53.4 250.0 L 53.4 249.9 L 53.3 249.9 L 53.3 249.8 L 53.2 249.8 L 53.2 249.7 L 53.2 249.7 L 53.2 249.7 L 53.2 249.7 L 53.2 249.7 L 53.1 249.6 L 53.1 249.6 L 53.0 249.6 L 53.0 249.6 L 53.0 249.6 L 53.0 249.6 L 53.0 249.6 L 53.0 249.7 L 52.9 249.7 L 52.8 249.7 L 52.7 249.8 L 52.7 249.8 L 52.6 249.9 L 52.6 249.9 L 52.6 249.9 L 52.5 249.9 L 52.4 249.9 L 52.4 249.9 L 52.4 249.9 L 52.4 249.9 L 52.3 249.9 L 52.3 249.9 L 52.3 249.9 L 52.2 249.9 L 52.2 249.9 L 52.1 249.9 L 52.0 249.8 L 52.0 249.8 L 52.0 249.8 L 51.9 249.8 L 51.8 249.8 L 51.8 249.8 L 51.7 249.8 L 51.7 249.8 L 51.7 249.8 L 51.6 249.8 L 51.6 249.7 L 51.5 249.7 L 51.4 249.7 L 51.4 249.6 L 51.3 249.6 L 51.3 249.6 L 51.3 249.5 L 51.2 249.5 L 51.2 249.4 L 51.1 249.4 L 51.1 249.3 L 51.0 249.2 L 51.0 249.2 L 51.0 249.1 L 51.0 249.0 L 51.0 249.0 L 51.0 249.0 L 51.0 248.9 L 51.1 248.9 L 51.1 248.9 L 51.1 248.9 L 51.1 248.9 L 51.1 248.8 L 51.1 248.8 L 51.2 248.8 L 51.2 248.8 L 51.2 248.8 L 51.2 248.8 L 51.2 248.8 L 51.3 248.7 L 51.3 248.7 L 51.3 248.7 L 51.4 248.7 L 51.4 248.7 L 51.4 248.7 L 51.5 248.6 L 51.5 248.5 L 51.5 248.5 L 51.6 248.4 L 51.6 248.4 L 51.6 248.3 L 51.6 248.3 L 51.6 248.2 L 51.7 248.2 L 51.7 248.2 L 51.7 248.1 L 51.7 248.1 L 51.7 248.0 L 51.7 248.0 L 51.8 247.9 L 51.8 247.9 L 51.8 247.9 L 51.9 247.8 L 52.0 247.8 L 52.0 247.8 L 52.1 247.8 L 52.1 247.7 L 52.1 247.7 L 52.1 247.7 L 52.2 247.7 L 52.3 247.7 L 52.3 247.6 L 52.4 247.6 L 52.5 247.6 L 52.5 247.5 L 52.6 247.5 L 52.6 247.5 L 52.6 247.5 L 52.6 247.4 L 52.6 247.4 L 52.7 247.3 L 52.7 247.3 L 52.8 247.3 L 52.8 247.2 L 52.8 247.2 L 52.8 247.1 L 52.9 247.0 L 52.9 247.0 L 52.9 246.9 L 52.9 246.9 L 53.0 246.7 L 53.0 246.6 L 53.1 246.5 L 53.1 246.4 L 53.1 246.2 L 53.1 246.2 L 53.1 246.1 L 53.1 246.1 L 53.0 245.9 L 52.9 245.8 L 52.9 245.8 L 52.9 245.7 L 52.9 245.7 L 52.9 245.7 L 52.9 245.6 L 52.9 245.5 L 52.9 245.5 L 52.9 245.5 L 53.0 245.4 L 53.0 245.4 L 53.1 245.4 L 53.1 245.3 L 53.1 245.3 L 53.1 245.3 L 53.1 245.3 L 53.2 245.2 L 53.2 245.2 L 53.3 245.2 L 53.3 245.1 L 53.3 245.1 L 53.3 245.1 L 53.4 245.1 L 53.6 245.0 L 53.6 245.0 L 53.6 245.0 L 53.7 244.9 L 53.8 244.9 L 53.8 244.8 L 53.9 244.8 L 53.9 244.7 L 53.9 244.6 L 54.0 244.5 L 54.0 244.4 L 54.0 244.2 L 54.0 244.1 L 54.1 244.0 L 54.1 244.0 L 54.1 243.9 L 54.1 243.9 L 54.1 243.9 L 54.1 243.8 L 54.1 243.8 L 54.2 243.7 L 54.2 243.6 L 54.2 243.6 L 54.2 243.5 L 54.2 243.5 L 54.3 243.3 L 54.3 243.3 L 54.3 243.2 L 54.4 243.1 L 54.4 243.0 L 54.5 243.0 L 54.5 243.0 L 54.6 242.9 L 54.6 242.9 L 54.6 242.8 L 54.7 242.8 L 54.7 242.8 L 54.7 242.8 L 54.7 242.7 L 54.7 242.6 L 54.8 242.5 L 54.8 242.4 L 54.9 242.3 L 54.9 242.3 L 54.9 242.2 L 54.9 242.2 L 54.9 242.2 L 55.0 242.1 L 55.0 242.1 L 55.0 242.1 L 55.1 242.1 L 55.1 242.1 L 55.2 242.1 L 55.3 242.2 L 55.4 242.3 L 55.4 242.3 L 55.5 242.3 L 55.5 242.3 L 55.5 242.4 L 55.6 242.4 L 55.6 242.4 L 55.6 242.4 L 55.6 242.4 L 55.6 242.4 L 55.6 242.4 L 55.7 242.4 L 55.7 242.4 L 55.7 242.3 L 55.7 242.3 L 55.8 242.2 L 55.8 242.1 L 55.9 242.0 L 55.9 242.0 L 55.9 241.9 L 56.0 241.9 L 56.0 241.9 L 56.0 241.9 L 56.0 241.9 L 56.1 241.8 L 56.2 241.7 L 56.2 241.7 L 56.3 241.6 L 56.4 241.5 L 56.4 241.5 L 56.5 241.4 L 56.5 241.3 L 56.5 241.2 L 56.5 241.2 L 56.6 241.1 L 56.6 241.0 L 56.7 240.9 L 56.7 240.9 L 56.8 240.6 L 56.8 240.5 L 56.8 240.5 L 56.9 240.4 L 56.9 240.2 L 57.0 240.0 L 57.0 240.0 L 57.1 239.9 L 57.2 239.8 L 57.4 239.4 L 57.5 239.2 L 57.6 239.2 L 57.6 239.2 L 57.6 239.2 L 57.7 239.1 L 57.7 239.1 L 57.7 239.1 L 57.7 239.1 L 57.8 239.1 L 57.8 239.1 L 57.8 239.1 L 57.8 239.1 L 57.8 239.1 L 57.9 239.1 L 58.0 239.1 L 58.0 239.2 L 58.1 239.2 L 58.1 239.3 L 58.2 239.4 L 58.2 239.4 L 58.2 239.4 L 58.2 239.4 L 58.3 239.5 L 58.3 239.5 L 58.3 239.5 L 58.3 239.5 L 58.3 239.5 L 58.4 239.5 L 58.4 239.5 L 58.4 239.5 L 58.4 239.5 L 58.5 239.5 L 58.6 239.5 L 58.6 239.4 L 58.7 239.4 L 58.7 239.4 L 58.7 239.4 L 58.7 239.4 L 58.9 239.3 L 59.1 239.3 L 59.1 239.3 L 59.1 239.2 L 59.3 239.2 L 59.3 239.1 L 59.4 239.1 L 59.4 239.1 L 59.4 239.0 L 59.4 239.0 L 59.4 239.0 L 59.4 238.8 L 59.5 238.8 L 59.5 238.8 L 59.5 238.7 L 59.5 238.7 L 59.5 238.6 L 59.5 238.6 L 59.5 238.6 L 59.5 238.6 L 59.6 238.5 L 59.6 238.5 L 59.6 238.5 L 59.7 238.5 L 59.7 238.5 L 59.7 238.5 L 59.7 238.5 L 59.8 238.5 L 59.8 238.5 L 59.9 238.5 L 59.9 238.5 L 59.9 238.4 L 59.9 238.4 L 60.0 238.4 L 60.1 238.4 L 60.1 238.4 L 60.1 238.4 L 60.2 238.4 L 60.3 238.3 L 60.3 238.3 L 60.3 238.3 L 60.3 238.3 L 60.4 238.4 L 60.5 238.4 L 60.5 238.4 L 60.5 238.4 L 60.6 238.4 L 60.7 238.4 L 60.7 238.4 L 60.7 238.4 L 60.8 238.3 L 60.8 238.3 L 60.9 238.3 L 60.9 238.3 L 61.0 238.2 L 61.0 238.2 L 61.0 238.1 L 61.2 237.9 L 61.2 237.8 L 61.3 237.6 L 61.4 237.4 L 61.5 237.4 L 61.5 237.4 L 61.6 237.3 L 61.7 237.3 L 61.8 237.3 L 61.8 237.4 L 61.9 237.4 L 62.0 237.5 L 62.0 237.5 L 62.0 237.5 L 62.0 237.5 L 62.0 237.6 L 62.0 237.7 L 62.0 237.7 L 62.1 237.8 L 62.1 237.9 L 62.1 238.1 L 62.1 238.1 L 62.2 238.2 L 62.3 238.4 L 62.4 238.5 L 62.5 238.5 L 62.5 238.5 L 62.5 238.5 L 62.6 238.6 L 62.6 238.6 L 62.7 238.6 L 62.8 238.6 L 62.8 238.6 L 63.1 238.6 L 63.1 238.6 L 63.1 238.6 L 63.2 238.6 L 63.2 238.6 L 63.3 238.7 L 63.3 238.7 L 63.3 238.7 L 63.4 238.7 L 63.4 238.7 L 63.6 238.7 L 63.8 238.8 L 63.8 238.8 L 63.8 238.8 L 63.8 238.8 L 63.8 238.8 L 63.8 238.8 L 63.9 238.8 L 64.0 238.7 L 64.0 238.7 L 64.0 238.7 L 64.1 238.7 L 64.2 238.7 L 64.3 238.8 L 64.3 238.8 L 64.3 238.8 L 64.4 238.8 L 64.4 238.8 L 64.4 238.8 L 64.5 238.8 L 64.5 238.8 L 64.5 238.8 L 64.5 238.7 L 64.5 238.7 L 64.5 238.7 L 64.5 238.6 L 64.6 238.5 L 64.6 238.5 L 64.6 238.5 L 64.6 238.4 L 64.6 238.4 L 64.6 238.4 L 64.6 238.4 L 64.6 238.4 L 64.7 238.4 L 64.7 238.4 L 64.8 238.4 L 64.9 238.4 L 64.9 238.4 L 64.9 238.4 L 64.9 238.4 L 65.0 238.4 L 65.0 238.3 L 65.0 238.3 L 65.0 238.3 L 65.0 238.3 L 65.1 238.3 L 65.2 238.4 L 65.3 238.4 L 65.3 238.4 L 65.3 238.4 L 65.4 238.4 L 65.4 238.4 L 65.5 238.3 L 65.5 238.3 L 65.5 238.3 L 65.5 238.2 L 65.5 238.0 L 65.5 237.9 L 65.6 237.9 L 65.6 237.9 L 65.6 237.8 L 65.6 237.7 L 65.7 237.6 L 65.7 237.6 L 65.7 237.5 L 65.7 237.5 L 65.8 237.4 L 65.8 237.4 L 65.8 237.3 L 65.9 237.3 L 65.9 237.3 L 65.9 237.3 L 65.9 237.3 L 66.0 237.3 L 66.0 237.3 L 66.0 237.3 L 66.0 237.3 L 66.1 237.4 L 66.1 237.4 L 66.1 237.4 L 66.1 237.5 L 66.3 237.5 L 66.4 237.6 L 66.4 237.6 L 66.4 237.6 L 66.4 237.6 L 66.5 237.7 L 66.6 237.7 L 66.6 237.7 L 66.8 237.7 L 67.0 237.7 L 67.1 237.7 L 67.1 237.7 L 67.2 237.7 L 67.2 237.7 L 67.3 237.7 L 67.3 237.8 L 67.4 237.8 L 67.4 237.8 L 67.4 237.8 L 67.4 237.8 L 67.5 237.9 L 67.5 237.9 L 67.6 238.0 L 67.6 238.0 L 67.7 238.1 L 67.7 238.1 L 67.8 238.3 L 67.9 238.3 L 67.9 238.4 L 68.0 238.4 L 68.1 238.4 L 68.2 238.4 L 68.2 238.4 L 68.3 238.4 L 68.3 238.4 L 68.3 238.4 L 68.4 238.4 L 68.4 238.4 L 68.5 238.4 L 68.5 238.4 L 68.5 238.4 L 68.7 238.4 L 68.7 238.4 L 68.8 238.4 L 68.9 238.4 L 68.9 238.4 L 69.0 238.5 L 69.0 238.5 L 69.0 238.5 L 69.1 238.6 L 69.1 238.6 L 69.1 238.6 L 69.1 238.6 L 69.2 238.7 L 69.3 238.8 L 69.5 238.9 L 69.6 238.9 L 69.7 238.9 L 70.0 238.9 L 70.2 238.9 L 70.2 239.0 L 70.2 239.0 L 70.3 239.0 L 70.3 239.0 L 70.4 239.0 L 70.5 239.0 L 70.6 239.1 L 70.7 239.1 L 70.8 239.1 L 70.9 239.1 L 71.0 239.2 L 71.3 239.3 L 71.4 239.3 L 71.4 239.3 L 71.5 239.3 L 71.6 239.3 L 71.6 239.3 L 71.6 239.3 L 71.6 239.3 L 71.6 239.3 L 71.8 239.3 L 71.8 239.3 L 71.9 239.3 L 71.9 239.3 L 71.9 239.2 L 72.0 239.2 L 72.0 239.1 L 72.1 239.1 L 72.1 239.1 L 72.1 239.0 L 72.1 239.0 L 72.1 239.0 L 72.2 239.0 L 72.2 239.0 L 72.2 238.9 L 72.2 238.9 L 72.3 238.8 L 72.3 238.8 L 72.3 238.8 L 72.3 238.8 L 72.3 238.7 L 72.4 238.7 L 72.4 238.7 L 72.5 238.6 L 72.5 238.6 L 72.6 238.6 L 72.6 238.6 L 72.6 238.6 L 72.7 238.5 L 72.7 238.4 L 72.7 238.4 L 72.7 238.4 L 72.7 238.3 L 72.7 238.2 L 72.7 238.2 L 72.7 238.2 L 72.7 238.1 L 72.7 238.1 L 72.7 238.1 L 72.7 238.1 L 72.7 238.1 L 72.7 238.0 L 72.7 237.9 L 72.7 237.8 L 72.7 237.7 L 72.6 237.6 L 72.6 237.5 L 72.6 237.5 L 72.6 237.4 L 72.5 237.4 L 72.5 237.3 L 72.5 237.3 L 72.4 237.3 L 72.4 237.3 L 72.4 237.3 L 72.3 237.2 L 72.1 237.1 L 71.9 237.0 L 71.8 237.0 L 71.8 236.9 L 71.8 236.9 L 71.7 236.9 L 71.7 236.8 L 71.7 236.8 L 71.7 236.8 L 71.7 236.7 L 71.7 236.7 L 71.6 236.5 L 71.6 236.5 L 71.6 236.5 L 71.6 236.5 L 71.6 236.5 L 71.6 236.4 L 71.5 236.3 L 71.4 236.2 L 71.4 236.2 L 71.3 236.2 L 71.3 236.2 L 71.2 236.2 L 71.2 236.2 L 71.1 236.2 L 70.6 236.2 L 70.5 236.2 L 70.4 236.2 L 70.2 236.2 L 70.2 236.2 L 70.1 236.2 L 69.9 236.2 L 69.8 236.2 L 69.8 236.2 L 69.7 236.1 L 69.7 236.1 L 69.7 236.1 L 69.6 236.1 L 69.4 236.0 L 69.4 236.0 L 69.3 235.9 L 69.3 235.8 L 69.3 235.7 L 69.3 235.7 L 69.3 235.7 L 69.2 235.5 L 69.2 235.4 L 69.2 235.3 L 69.1 235.2 L 69.0 235.1 L 69.0 235.1 L 68.9 235.1 L 68.9 235.1 L 68.9 235.1 L 68.9 235.0 L 68.7 234.9 L 68.5 234.8 L 68.2 234.7 L 68.1 234.7 L 68.0 234.7 L 67.9 234.6 L 67.7 234.6 L 67.7 234.6 L 67.7 234.6 L 67.7 234.6 L 67.6 234.5 L 67.6 234.5 L 67.6 234.5 L 67.6 234.4 L 67.6 234.3 L 67.7 234.3 L 67.7 234.2 L 67.7 234.2 L 67.7 234.2 L 67.7 234.2 L 67.7 234.1 L 67.7 234.1 L 67.7 234.1 L 67.7 234.1 L 67.7 234.1 L 67.8 234.0 L 67.8 233.9 L 67.8 233.9 L 67.8 233.9 L 67.8 233.9 L 67.8 233.8 L 67.8 233.8 L 67.8 233.7 L 68.0 233.5 L 68.0 233.5 L 68.1 233.2 L 68.2 233.1 L 68.4 232.8 L 68.7 232.3 L 68.8 232.0 L 68.8 232.0 L 68.8 232.0 L 68.9 231.9 L 68.9 231.9 L 68.9 231.9 L 68.9 231.9 L 68.9 231.9 L 69.0 231.8 L 69.0 231.8 L 69.1 231.8 L 69.2 231.8 L 69.2 231.8 L 69.2 231.8 L 69.3 231.7 L 69.3 231.7 L 69.3 231.6 L 69.4 231.6 L 69.4 231.5 L 69.4 231.5 L 69.5 231.2 L 69.5 231.2 L 69.6 231.1 L 69.6 231.0 L 69.6 231.0 L 69.6 230.9 L 69.7 230.9 L 69.7 230.8 L 69.8 230.7 L 69.8 230.7 L 69.9 230.6 L 70.2 230.3 L 70.3 230.2 L 70.4 230.2 L 70.5 230.1 L 70.5 230.0 L 70.6 229.9 L 70.7 229.9 L 70.7 229.8 L 70.7 229.8 L 70.7 229.8 L 70.7 229.7 L 70.8 229.6 L 70.8 229.6 L 70.8 229.6 L 70.8 229.5 L 70.9 229.4 L 70.9 229.4 L 70.9 229.3 L 71.0 229.3 L 71.0 229.3 L 71.1 229.3 L 71.2 229.3 L 71.2 229.3 L 71.2 229.3 L 71.4 229.3 L 71.4 229.3 L 71.4 229.3 L 71.5 229.3 L 71.5 229.3 L 71.6 229.3 L 71.6 229.2 L 71.6 229.2 L 71.6 229.2 L 71.6 229.1 L 71.7 229.1 L 71.7 229.1 L 71.7 229.1 L 71.7 229.1 L 71.7 229.0 L 71.7 228.9 L 71.7 228.9 L 71.7 228.8 L 71.7 228.8 L 71.7 228.8 L 71.8 228.7 L 71.8 228.7 L 72.0 228.7 L 72.0 228.7 L 72.1 228.7 L 72.1 228.6 L 72.2 228.6 L 72.3 228.5 L 72.4 228.5 L 72.4 228.5 L 72.4 228.5 L 72.4 228.5 L 72.4 228.4 L 72.4 228.3 L 72.4 228.2 L 72.5 227.9 L 72.5 227.9 L 72.5 227.9 L 72.7 227.5 L 72.7 227.4 L 72.7 227.4 L 72.7 227.4 L 72.9 227.4 L 73.3 227.4 L 73.4 227.4 L 73.4 227.4 L 73.4 227.3 L 73.2 226.7 L 73.2 226.7 L 73.6 226.4 L 73.6 226.4 L 73.6 226.4 L 73.6 226.4 L 73.7 226.5 L 73.7 226.5 L 73.8 226.6 L 73.9 226.6 L 73.9 226.6 L 73.9 226.6 L 73.9 226.6 L 73.9 226.6 L 73.9 226.6 L 74.2 226.3 L 74.3 225.9 L 74.3 225.9 L 74.7 226.1 L 75.0 226.1 L 75.2 226.2 L 75.3 226.2 L 75.7 226.5 L 76.1 226.5 L 76.8 226.8 L 76.9 226.8 L 76.9 226.8 L 76.9 226.8 L 77.0 226.8 L 77.0 226.8 L 77.1 226.5 L 77.3 226.2 L 77.3 226.2 L 77.3 226.2 L 77.3 226.2 L 77.7 227.5 L 77.7 227.5 L 77.8 226.8 L 77.8 226.3 L 77.9 226.3 L 77.9 226.3 L 77.9 226.2 L 78.7 226.4 L 78.1 225.8 L 78.1 225.7 L 78.2 225.6 L 78.3 225.3 L 78.4 225.2 L 78.5 225.0 L 78.5 224.9 L 78.6 224.7 L 78.6 224.6 L 78.6 224.5 L 78.6 224.5 L 78.6 224.5 L 78.6 224.4 L 78.5 224.2 L 78.5 224.1 L 78.5 224.0 L 78.4 223.9 L 78.4 223.9 L 78.4 223.8 L 78.5 223.7 L 78.5 223.6 L 78.5 223.5 L 78.5 223.4 L 78.6 223.3 L 78.6 223.3 L 78.7 223.2 L 78.9 223.2 L 78.9 223.1 L 79.2 222.9 L 79.4 222.8 L 79.4 222.8 L 79.4 222.7 L 79.4 222.7 L 79.4 222.6 L 79.5 222.5 L 79.5 222.4 L 79.5 222.3 L 79.6 222.3 L 79.6 222.2 L 79.7 222.2 L 79.8 222.2 L 79.8 222.1 L 79.8 222.1 L 79.9 222.0 L 79.9 221.9 L 79.9 221.8 L 79.9 221.8 L 79.9 221.7 L 80.0 221.7 L 80.1 221.6 L 80.2 221.6 L 80.3 221.6 L 80.4 221.5 L 80.4 221.5 L 80.5 221.5 L 80.6 221.5 L 80.7 221.5 L 80.7 221.5 L 80.8 221.5 L 80.8 221.5 L 80.9 221.4 L 80.9 221.4 L 80.9 221.4 L 80.9 221.4 L 81.0 221.4 L 81.0 221.3 L 81.0 221.3 L 81.1 221.2 L 81.1 221.2 L 81.1 221.2 L 81.1 221.1 L 81.2 221.1 L 81.2 221.0 L 81.2 220.9 L 81.3 220.9 L 81.3 220.8 L 81.2 220.8 L 81.2 220.8 L 81.2 220.8 L 81.2 220.8 L 81.2 220.8 L 81.2 220.7 L 81.2 220.6 L 81.1 220.6 L 81.1 220.5 L 81.1 220.4 L 81.0 220.4 L 81.0 220.3 L 81.0 220.3 L 81.1 220.3 L 81.1 220.2 L 81.1 220.2 L 81.1 220.2 L 81.1 220.2 L 81.1 220.2 L 81.1 220.2 L 81.2 220.2 L 81.2 220.1 L 81.3 220.1 L 81.5 220.0 L 81.5 220.0 L 81.5 220.0 L 81.6 219.9 L 81.6 219.9 L 81.7 219.8 L 81.7 219.8 L 81.7 219.8 L 81.7 219.8 L 81.8 219.6 L 81.9 219.5 L 81.9 219.4 L 82.0 219.4 L 82.0 219.4 L 82.0 219.4 L 82.0 219.3 L 82.0 219.3 L 82.0 219.3 L 82.0 219.2 L 82.1 219.1 L 82.1 219.0 L 82.1 219.0 L 82.2 218.7 L 82.3 218.5 L 82.3 218.5 L 82.4 218.4 L 82.4 218.4 L 82.5 218.3 L 82.6 218.3 L 82.6 218.2 L 82.7 218.2 L 82.7 218.2 L 82.7 218.2 L 82.7 218.1 L 82.8 218.1 L 82.8 218.0 L 82.8 218.0 L 82.9 218.0 L 83.1 217.9 L 83.2 217.8 L 83.4 217.8 L 83.6 217.7 L 83.6 217.6 L 83.6 217.6 L 83.7 217.6 L 83.7 217.6 L 83.8 217.5 L 83.8 217.5 L 83.8 217.5 L 83.7 217.4 L 83.7 217.4 L 83.7 217.4 L 83.7 217.3 L 83.7 217.3 L 83.6 217.2 L 83.5 217.1 L 83.4 217.0 L 83.3 216.9 L 83.2 216.8 L 83.0 216.5 L 82.8 216.5 L 82.7 216.4 L 82.6 216.3 L 82.6 216.3 L 82.6 216.3 L 82.6 216.3 L 82.5 216.3 L 82.5 216.3 L 82.3 216.2 L 82.2 216.2 L 82.1 216.2 L 82.1 216.2 L 82.1 216.1 L 82.0 216.1 L 82.0 216.1 L 82.0 216.1 L 82.0 216.0 L 81.9 215.9 L 81.9 215.9 L 81.9 215.8 L 81.9 215.7 L 81.9 215.5 L 81.9 215.3 L 81.9 215.2 L 81.9 215.1 L 81.9 215.1 L 81.9 215.1 L 81.9 215.0 L 81.9 214.9 L 81.9 214.8 L 81.9 214.7 L 81.9 214.7 L 81.8 214.4 L 81.7 214.1 L 81.6 213.8 L 81.6 213.7 L 81.5 213.6 L 81.4 213.4 L 81.4 213.3 L 81.4 213.2 L 81.4 213.2 L 81.4 213.2 L 81.4 213.2 L 81.4 213.2 L 81.5 213.1 L 81.6 213.0 L 81.7 212.9 L 81.8 212.8 L 82.0 212.7 L 82.2 212.6 L 82.3 212.5 L 82.3 212.5 L 82.3 212.5 L 82.3 212.5 L 82.3 212.5 L 82.4 212.4 L 82.5 212.3 L 82.5 212.3 L 82.6 212.1 L 82.7 212.0 L 82.7 212.0 L 82.7 211.9 L 82.7 211.9 L 82.7 211.8 L 82.6 211.7 L 82.6 211.6 L 82.6 211.6 L 82.6 211.5 L 82.5 211.5 L 82.5 211.4 L 82.5 211.4 L 82.5 211.3 L 82.4 211.3 L 82.3 211.2 L 82.2 211.2 L 82.1 211.2 L 82.1 211.2 L 82.1 211.2 L 82.0 211.2 L 82.0 211.2 L 82.0 211.2 L 81.9 211.2 L 81.8 211.2 L 81.8 211.2 L 81.6 211.2 L 81.5 211.2 L 81.5 211.2 L 81.5 211.1 L 81.4 211.1 L 81.3 211.0 L 81.3 211.0 L 81.3 211.0 L 81.3 211.0 L 81.2 211.0 L 81.2 211.0 L 81.2 211.0 L 81.2 211.0 L 81.1 211.0 L 81.0 211.0 L 81.0 211.1 L 81.0 211.0 L 81.0 211.0 L 80.9 211.0 L 80.9 211.0 L 80.8 211.0 L 80.8 210.9 L 80.7 210.8 L 80.7 210.8 L 80.7 210.7 L 80.7 210.6 L 80.7 210.4 L 80.8 210.3 L 80.8 210.2 L 80.8 210.2 L 80.8 210.1 L 80.7 210.0 L 80.7 210.0 L 80.6 209.9 L 80.5 209.8 L 80.5 209.8 L 80.4 209.7 L 80.3 209.6 L 80.3 209.6 L 80.3 209.6 L 80.2 209.5 L 80.2 209.5 L 80.2 209.4 L 80.1 209.4 L 80.1 209.2 L 80.1 209.1 L 80.1 209.1 L 80.1 209.1 L 80.1 209.0 L 80.0 208.8 L 80.0 208.7 L 80.0 208.7 L 79.9 208.7 L 79.9 208.6 L 79.9 208.6 L 79.8 208.4 L 79.6 208.3 L 79.5 208.1 L 79.4 208.0 L 79.3 207.9 L 79.3 207.9 L 79.3 207.8 L 79.3 207.8 L 79.3 207.7 L 79.3 207.7 L 79.4 207.7 L 79.5 207.6 L 79.5 207.6 L 79.5 207.6 L 79.6 207.5 L 79.6 207.4 L 79.6 207.4 L 79.6 207.4 L 79.6 207.4 L 79.6 207.4 L 79.6 207.3 L 79.7 207.3 L 79.8 207.2 L 79.8 207.2 L 79.8 207.2 L 79.9 207.1 L 79.9 207.1 L 80.0 207.1 L 80.0 207.0 L 80.0 206.9 L 80.1 206.9 L 80.2 206.7 L 80.2 206.6 L 80.3 206.6 L 80.3 206.4 L 80.4 206.4 L 80.4 206.2 L 80.4 206.2 L 80.4 206.2 L 80.4 206.2 L 80.4 206.1 L 80.5 205.8 L 80.5 205.8 L 80.5 205.5 L 80.5 205.5 L 80.5 205.3 L 80.4 205.1 L 80.3 205.0 L 80.3 204.9 L 80.3 204.8 L 80.2 204.8 L 80.2 204.8 L 80.1 204.8 L 80.0 204.7 L 79.9 204.7 L 79.8 204.7 L 79.7 204.7 L 79.6 204.7 L 79.6 204.6 L 79.5 204.6 L 79.5 204.6 L 79.5 204.6 L 79.5 204.5 L 79.5 204.5 L 79.5 204.5 L 79.5 204.5 L 79.5 204.4 L 79.5 204.4 L 79.5 204.4 L 79.4 204.4 L 79.4 204.4 L 79.4 204.3 L 79.3 204.3 L 79.3 204.3 L 79.2 204.2 L 79.2 204.2 L 79.2 204.2 L 79.2 204.2 L 79.2 204.2 L 79.2 204.2 L 79.2 204.2 L 79.1 204.3 L 79.1 204.3 L 79.1 204.3 L 79.1 204.3 L 79.1 204.3 L 79.1 204.3 L 79.1 204.4 L 79.1 204.4 L 79.1 204.5 L 79.1 204.5 L 79.1 204.5 L 79.1 204.5 L 79.0 204.5 L 79.0 204.5 L 79.0 204.5 L 79.0 204.5 L 79.0 204.5 L 79.0 204.5 L 79.0 204.5 L 79.0 204.4 L 79.0 204.4 L 79.0 204.4 L 78.9 204.4 L 78.9 204.3 L 78.9 204.3 L 78.9 204.3 L 78.9 204.3 L 78.9 204.3 L 78.9 204.3 L 78.9 204.2 L 78.9 204.2 L 78.9 204.2 L 78.8 204.1 L 78.7 204.1 L 78.7 204.0 L 78.7 204.0 L 78.6 204.0 L 78.6 204.0 L 78.5 204.0 L 78.5 203.9 L 78.5 203.9 L 78.5 203.9 L 78.5 203.9 L 78.5 203.9 L 78.5 203.9 L 78.5 203.8 L 78.5 203.8 L 78.5 203.8 L 78.5 203.8 L 78.5 203.8 L 78.5 203.7 L 78.5 203.7 L 78.5 203.7 L 78.5 203.7 L 78.5 203.6 L 78.5 203.6 L 78.4 203.6 L 78.4 203.5 L 78.3 203.4 L 78.3 203.3 L 78.2 203.3 L 78.2 203.3 L 78.2 203.3 L 78.1 203.3 L 78.0 203.3 L 78.0 203.3 L 78.0 203.3 L 78.0 203.3 L 78.0 203.3 L 77.9 203.3 L 77.9 203.3 L 77.9 203.3 L 77.8 203.3 L 77.8 203.3 L 77.8 203.3 L 77.8 203.4 L 77.7 203.3 L 77.7 203.3 L 77.6 203.3 L 77.6 203.3 L 77.6 203.2 L 77.6 203.2 L 77.5 203.2 L 77.5 203.1 L 77.4 203.1 L 77.4 203.0 L 77.3 203.0 L 77.2 202.9 L 77.2 202.9 L 77.1 202.9 L 77.1 202.8 L 77.0 202.8 L 76.9 202.8 L 76.9 202.8 L 76.7 202.8 L 76.7 202.7 L 76.6 202.7 L 76.5 202.7 L 76.5 202.7 L 76.5 202.7 L 76.4 202.6 L 76.3 202.6 L 76.3 202.6 L 76.3 202.6 L 76.2 202.6 L 76.2 202.6 L 76.2 202.5 L 76.1 202.5 L 76.1 202.5 L 76.1 202.5 L 76.1 202.5 L 76.1 202.4 L 76.1 202.3 L 76.0 202.3 L 76.0 202.2 L 76.0 202.1 L 75.9 202.1 L 75.9 202.0 L 75.9 202.0 L 75.9 201.9 L 75.9 201.8 L 75.9 201.7 L 75.9 201.7 L 75.9 201.6 L 75.8 201.5 L 75.8 201.5 L 75.7 201.5 L 75.6 201.5 L 75.6 201.5 L 75.5 201.5 L 75.5 201.4 L 75.4 201.4 L 75.3 201.3 L 75.3 201.2 L 75.3 201.2 L 75.3 201.1 L 75.3 201.1 L 75.3 201.1 L 75.3 200.9 L 75.3 200.7 L 75.3 200.7 L 75.3 200.6 L 75.3 200.6 L 75.3 200.6 L 75.3 200.5 L 75.3 200.4 L 75.4 200.3 L 75.4 200.3 L 75.4 200.2 L 75.4 200.2 L 75.4 200.2 L 75.4 200.1 L 75.4 200.0 L 75.3 200.0 L 75.2 200.0 L 74.9 200.0 L 74.8 200.0 L 74.4 199.8 L 74.2 199.8 L 74.2 199.8 L 74.1 199.8 L 73.9 199.8 L 73.8 199.8 L 73.5 199.9 L 73.5 200.0 L 73.4 200.0 L 73.2 200.2 L 73.1 200.2 L 73.0 200.3 L 72.9 200.4 L 72.8 200.4 L 72.8 200.4 L 72.6 200.5 L 72.5 200.5 L 72.4 200.5 L 72.3 200.5 L 72.2 200.5 L 72.1 200.5 L 72.0 200.5 L 72.0 200.5 L 71.9 200.5 L 71.9 200.5 L 71.9 200.5 L 71.6 200.5 L 71.6 200.5 L 71.6 200.5 L 71.6 200.5 L 71.5 200.5 L 71.5 200.4 L 71.5 200.4 L 71.4 200.3 L 71.4 200.3 L 71.4 200.3 L 71.4 200.3 L 71.3 200.2 L 71.3 200.2 L 71.2 200.2 L 71.2 200.2 L 71.2 200.2 L 71.2 200.2 L 71.2 200.2 L 71.1 200.2 L 71.1 200.2 L 71.1 200.2 L 71.0 200.3 L 71.0 200.4 L 71.0 200.4 L 71.0 200.4 L 70.9 200.4 L 70.9 200.5 L 70.8 200.5 L 70.8 200.5 L 70.7 200.5 L 70.6 200.5 L 70.6 200.5 L 70.5 200.5 L 70.3 200.5 L 70.3 200.5 L 70.3 200.5 L 70.3 200.5 L 70.3 200.5 L 70.2 200.4 L 70.2 200.4 L 70.2 200.4 L 70.1 200.3 L 70.1 200.3 L 70.0 200.1 L 69.9 200.1 L 69.9 199.9 L 69.9 199.9 L 69.8 199.7 L 69.8 199.6 L 69.8 199.5 L 69.8 199.4 L 69.8 199.3 L 69.8 199.2 L 69.8 199.2 L 69.9 199.2 L 70.0 199.1 L 70.1 199.0 L 70.2 199.0 L 70.2 199.0 L 70.3 198.9 L 70.5 198.9 L 70.6 198.8 L 70.8 198.8 L 70.8 198.8 L 70.9 198.7 L 71.2 198.6 L 71.5 198.5 L 71.6 198.5 L 71.8 198.3 L 72.0 198.2 L 72.3 198.0 L 72.5 197.9 L 72.5 197.9 L 72.5 197.9 L 72.7 197.7 L 72.9 197.7 L 73.0 197.6 L 73.1 197.6 L 73.2 197.5 L 73.3 197.4 L 73.5 197.3 L 73.6 197.2 L 73.7 197.2 L 73.8 197.1 L 73.8 197.1 L 73.8 197.1 L 73.8 197.0 L 73.9 197.0 L 73.9 197.0 L 73.9 197.0 L 73.9 196.9 L 73.9 196.8 L 73.9 196.7 L 73.9 196.6 L 73.8 196.5 L 73.7 196.4 L 73.6 196.3 L 73.6 196.2 L 73.5 196.1 L 73.4 196.0 L 73.4 195.9 L 73.3 195.9 L 73.3 195.8 L 73.3 195.7 L 73.3 195.7 L 73.2 195.6 L 73.3 195.4 L 73.3 195.3 L 73.2 195.2 L 73.2 195.2 L 73.2 195.1 L 73.2 195.1 L 73.2 195.1 L 73.3 195.0 L 73.3 195.0 L 73.3 195.0 L 73.3 195.0 L 73.3 194.9 L 73.4 194.8 L 73.4 194.8 L 73.4 194.8 L 73.4 194.8 L 73.4 194.7 L 73.4 194.7 L 73.5 194.7 L 73.5 194.7 L 73.5 194.7 L 73.4 194.6 L 73.4 194.6 L 73.4 194.6 L 73.3 194.5 L 73.3 194.5 L 73.3 194.5 L 73.3 194.5 L 73.3 194.5 L 73.3 194.4 L 73.4 194.4 L 73.4 194.4 L 73.4 194.4 L 73.4 194.3 L 73.4 194.3 L 73.6 194.2 L 73.6 194.2 L 73.7 194.2 L 73.7 194.2 L 73.7 194.2 L 73.8 194.2 L 73.9 194.2 L 73.9 194.2 L 74.0 194.2 L 74.1 194.3 L 74.2 194.3 L 74.3 194.4 L 74.4 194.5 L 74.5 194.6 L 74.5 194.7 L 74.6 194.7 L 74.6 194.7 L 74.6 194.7 L 74.6 194.9 L 74.6 195.1 L 74.7 195.1 L 74.7 195.2 L 74.7 195.2 L 74.7 195.2 L 74.7 195.2 L 74.7 195.2 L 74.9 195.2 L 74.9 195.2 L 75.0 195.2 L 75.1 195.2 L 75.1 195.2 L 75.3 195.2 L 75.3 195.2 L 75.4 195.2 L 75.5 195.2 L 75.5 195.3 L 75.5 195.3 L 75.6 195.3 L 75.6 195.3 L 75.7 195.2 L 75.7 195.2 L 75.7 195.2 L 75.7 195.2 L 75.8 195.2 L 75.8 195.1 L 75.9 195.0 L 75.9 194.9 L 75.9 194.7 L 76.0 194.6 L 76.0 194.4 L 76.0 194.4 L 76.0 194.2 L 76.0 194.1 L 76.0 194.0 L 76.0 194.0 L 76.0 193.7 L 76.0 193.7 L 76.0 193.6 L 76.0 193.6 L 76.0 193.6 L 76.0 193.6 L 76.0 193.5 L 76.0 193.5 L 76.0 193.5 L 76.0 193.5 L 76.0 193.3 L 76.1 193.3 L 76.1 193.3 L 76.1 193.2 L 76.1 193.1 L 76.1 193.0 L 76.1 193.0 L 76.1 192.9 L 76.1 192.9 L 76.1 192.8 L 76.1 192.8 L 76.1 192.8 L 76.1 192.7 L 76.1 192.7 L 76.1 192.7 L 76.1 192.7 L 76.1 192.7 L 76.1 192.7 L 76.1 192.7 L 76.0 192.7 L 75.9 192.7 L 75.8 192.8 L 75.7 192.8 L 75.7 192.8 L 75.6 192.8 L 75.5 192.9 L 75.3 193.0 L 75.3 193.1 L 75.2 193.1 L 75.2 193.1 L 75.1 193.2 L 75.0 193.3 L 74.9 193.4 L 74.9 193.4 L 74.8 193.4 L 74.8 193.5 L 74.7 193.6 L 74.5 193.7 L 74.5 193.8 L 74.5 193.8 L 74.4 193.8 L 74.4 193.8 L 74.4 193.8 L 74.4 193.8 L 74.4 193.8 L 74.4 193.8 L 74.3 193.7 L 74.2 193.7 L 74.1 193.6 L 74.1 193.5 L 74.1 193.5 L 74.0 193.4 L 73.9 193.3 L 73.7 193.2 L 73.6 193.1 L 73.4 193.0 L 73.3 193.0 L 73.3 193.0 L 73.2 192.9 L 73.2 192.9 L 73.2 192.9 L 73.1 192.9 L 73.0 193.0 L 73.0 193.0 L 72.9 193.0 L 72.8 193.0 L 72.8 193.0 L 72.8 193.0 L 72.7 193.1 L 72.6 193.0 L 72.4 192.9 L 72.3 192.9 L 72.3 192.8 L 72.1 192.7 L 71.9 192.5 L 71.9 192.5 L 71.7 192.4 L 71.7 192.4 L 71.7 192.4 L 71.7 192.3 L 71.6 192.3 L 71.5 192.1 L 71.4 192.1 L 71.4 192.1 L 71.3 191.9 L 71.3 191.9 L 71.2 191.9 L 71.2 191.9 L 71.2 191.9 L 71.1 191.7 L 71.0 191.6 L 71.0 191.5 L 70.9 191.4 L 70.8 191.2 L 70.7 191.1 L 70.7 191.1 L 70.7 191.1 L 70.7 191.1 L 70.7 191.0 L 70.8 191.0 L 70.8 191.0 L 70.8 191.0 L 70.8 190.9 L 70.8 190.9 L 70.8 190.8 L 70.8 190.8 L 70.8 190.8 L 70.8 190.7 L 70.8 190.7 L 70.8 190.7 L 70.8 190.7 L 70.8 190.7 L 70.7 190.6 L 70.6 190.4 L 70.6 190.3 L 70.5 190.2 L 70.5 190.1 L 70.4 190.1 L 70.1 190.0 L 69.9 189.9 L 69.9 189.9 L 69.9 189.9 L 69.6 189.9 L 69.6 189.8 L 69.5 189.8 L 69.5 189.8 L 69.3 189.8 L 69.3 189.8 L 69.3 189.8 L 69.2 189.8 L 69.2 189.8 L 69.2 189.8 L 69.2 189.8 L 69.1 189.9 L 69.0 189.9 L 69.0 190.0 L 69.0 190.0 L 68.9 190.1 L 68.8 190.2 L 68.8 190.2 L 68.7 190.3 L 68.7 190.3 L 68.7 190.5 L 68.6 190.5 L 68.6 190.7 L 68.5 190.7 L 68.5 190.8 L 68.5 190.8 L 68.5 190.9 L 68.5 190.9 L 68.6 191.1 L 68.6 191.2 L 68.7 191.4 L 68.8 191.5 L 68.8 191.5 L 68.8 191.6 L 68.7 191.6 L 68.7 191.6 L 68.7 191.7 L 68.7 191.7 L 68.7 191.7 L 68.7 191.7 L 68.6 191.7 L 68.6 191.7 L 68.6 191.7 L 68.6 191.8 L 68.6 191.8 L 68.6 191.9 L 68.6 191.9 L 68.6 192.0 L 68.6 192.1 L 68.6 192.1 L 68.5 192.2 L 68.5 192.2 L 68.4 192.3 L 68.4 192.4 L 68.4 192.4 L 68.4 192.4 L 68.4 192.4 L 68.3 192.5 L 68.3 192.5 L 68.3 192.5 L 68.3 192.5 L 68.3 192.5 L 68.3 192.6 L 68.3 192.6 L 68.3 192.6 L 68.3 192.6 L 68.3 192.7 L 68.3 192.7 L 68.3 192.7 L 68.2 192.7 L 68.2 192.7 L 68.2 192.7 L 68.2 192.7 L 68.1 192.7 L 68.1 192.7 L 68.1 192.8 L 68.1 192.8 L 68.1 192.8 L 68.0 192.8 L 68.0 192.9 L 68.0 192.9 L 67.9 192.9 L 67.9 193.0 L 67.8 193.0 L 67.8 193.0 L 67.8 193.0 L 67.8 193.0 L 67.7 192.9 L 67.7 192.9 L 67.7 192.9 L 67.7 192.8 L 67.6 192.9 L 67.6 192.9 L 67.6 192.9 L 67.6 192.9 L 67.4 193.0 L 67.4 193.1 L 67.4 193.1 L 67.4 193.1 L 67.3 193.1 L 67.3 193.1 L 67.3 193.1 L 67.2 193.0 L 67.2 193.0 L 67.2 193.0 L 67.1 193.0 L 67.1 193.0 L 67.1 193.0 L 67.0 193.0 L 67.0 193.1 L 66.9 193.1 L 66.9 193.1 L 66.9 193.1 L 66.9 193.1 L 66.8 193.1 L 66.8 193.1 L 66.8 193.2 L 66.8 193.2 L 66.7 193.2 L 66.7 193.2 L 66.6 193.1 L 66.6 193.1 L 66.6 193.0 L 66.6 193.0 L 66.6 193.0 L 66.6 193.0 L 66.6 193.0 L 66.5 193.0 L 66.5 193.0 L 66.5 193.0 L 66.4 193.0 L 66.4 193.0 L 66.4 192.9 L 66.3 192.9 L 66.3 192.9 L 66.2 192.8 L 66.1 192.8 L 66.1 192.8 L 66.1 192.8 L 66.1 192.8 L 66.0 192.8 L 66.0 192.8 L 66.0 192.8 L 65.9 192.8 L 65.9 192.8 L 65.9 192.8 L 65.9 192.8 L 65.8 192.7 L 65.8 192.7 L 65.8 192.7 L 65.8 192.7 L 65.8 192.7 L 65.8 192.7 L 65.8 192.7 L 65.7 192.7 L 65.7 192.8 L 65.7 192.8 L 65.7 192.8 L 65.7 192.8 L 65.6 192.9 L 65.6 192.9 L 65.6 192.9 L 65.6 192.9 L 65.5 192.9 L 65.5 192.9 L 65.5 192.9 L 65.5 192.9 L 65.5 192.9 L 65.4 192.8 L 65.4 192.9 L 65.4 192.9 L 65.4 192.9 L 65.4 192.9 L 65.5 193.0 L 65.5 193.0 L 65.5 193.0 L 65.5 193.1 L 65.5 193.1 L 65.5 193.2 L 65.4 193.2 L 65.4 193.2 L 65.4 193.2 L 65.4 193.1 L 65.3 193.1 L 65.3 193.1 L 65.3 193.1 L 65.3 193.1 L 65.2 193.1 L 65.2 193.1 L 65.2 193.1 L 65.1 193.1 L 65.1 193.0 L 65.1 193.0 L 65.0 193.0 L 65.0 193.0 L 65.0 193.0 L 65.0 193.0 L 65.0 193.0 L 65.0 193.0 L 65.0 193.1 L 65.0 193.2 L 65.0 193.2 L 64.9 193.2 L 64.9 193.2 L 64.9 193.2 L 64.9 193.2 L 64.9 193.2 L 64.8 193.2 L 64.8 193.2 L 64.8 193.2 L 64.8 193.2 L 64.8 193.1 L 64.7 193.1 L 64.7 193.1 L 64.7 193.0 L 64.7 193.0 L 64.6 193.0 L 64.5 193.0 L 64.5 193.0 L 64.4 192.9 L 64.4 193.0 L 64.3 193.0 L 64.3 192.9 L 64.3 192.9 L 64.1 192.9 L 64.1 192.9 L 64.1 192.8 L 64.0 192.7 L 64.0 192.7 L 64.0 192.7 L 63.9 192.7 L 63.8 192.6 L 63.8 192.6 L 63.8 192.6 L 63.8 192.6 L 63.8 192.6 L 63.7 192.6 L 63.7 192.6 L 63.7 192.6 L 63.7 192.6 L 63.6 192.6 L 63.6 192.6 L 63.6 192.6 L 63.5 192.7 L 63.5 192.7 L 63.4 192.6 L 63.4 192.6 L 63.4 192.6 L 63.4 192.6 L 63.3 192.6 L 63.3 192.6 L 63.2 192.6 L 63.2 192.5 L 63.2 192.6 L 63.2 192.6 L 63.1 192.6 L 63.0 192.6 L 62.9 192.7 L 62.9 192.7 L 62.9 192.7 L 62.8 192.7 L 62.8 192.7 L 62.7 192.7 L 62.7 192.8 L 62.7 192.8 L 62.6 192.8 L 62.6 192.8 L 62.6 192.8 L 62.6 192.9 L 62.6 192.9 L 62.6 192.9 L 62.6 192.9 L 62.6 192.9 L 62.6 193.0 L 62.6 193.0 L 62.6 193.0 L 62.5 193.0 L 62.5 193.1 L 62.5 193.1 L 62.4 193.1 L 62.4 193.1 L 62.3 193.1 L 62.2 193.0 L 62.1 193.0 L 62.1 193.0 L 62.0 192.9 L 62.0 192.9 L 62.0 192.9 L 62.0 192.9 L 62.0 192.9 L 62.0 192.9 L 62.0 192.8 L 62.0 192.8 L 61.9 192.8 L 61.8 192.8 L 61.7 192.8 L 61.6 192.8 L 61.5 192.8 L 61.4 192.8 L 61.4 192.8 L 61.4 192.8 L 61.3 192.8 L 61.3 192.8 L 61.3 192.8 L 61.3 192.8 L 61.3 192.8 L 61.2 192.8 L 61.2 192.7 L 61.2 192.7 L 61.2 192.7 L 61.1 192.7 L 61.1 192.7 L 61.1 192.7 L 61.1 192.7 L 61.0 192.7 L 61.0 192.7 L 61.0 192.7 L 61.0 192.7 L 60.9 192.7 L 60.9 192.7 L 60.9 192.7 L 60.8 192.7 L 60.8 192.7 L 60.8 192.7 L 60.8 192.7 L 60.8 192.7 L 60.8 192.7 L 60.7 192.7 L 60.7 192.6 L 60.7 192.6 L 60.7 192.6 L 60.7 192.6 L 60.6 192.6 L 60.6 192.5 L 60.6 192.5 L 60.5 192.5 L 60.5 192.5 L 60.5 192.5 L 60.4 192.5 L 60.4 192.5 L 60.4 192.5 L 60.3 192.5 L 60.3 192.4 L 60.3 192.4 L 60.3 192.4 L 60.3 192.4 L 60.3 192.4 L 60.3 192.3 L 60.2 192.3 L 60.2 192.3 L 60.2 192.3 L 60.2 192.3 L 60.2 192.3 L 60.1 192.3 L 60.1 192.3 L 60.1 192.3 L 60.1 192.3 L 60.0 192.3 L 60.0 192.3 L 60.0 192.3 L 60.0 192.3 L 60.0 192.3 L 59.9 192.4 L 59.9 192.4 L 59.9 192.4 L 59.9 192.4 L 59.9 192.5 L 59.8 192.5 L 59.8 192.5 L 59.8 192.5 L 59.7 192.5 L 59.7 192.6 L 59.7 192.6 L 59.7 192.6 L 59.7 192.6 L 59.7 192.6 L 59.6 192.7 L 59.6 192.8 L 59.6 192.8 L 59.6 192.8 L 59.5 192.8 L 59.5 192.8 L 59.4 192.8 L 59.4 192.8 L 59.3 192.7 L 59.3 192.7 L 59.2 192.7 L 59.2 192.7 L 59.2 192.7 L 59.1 192.7 L 59.1 192.7 L 59.0 192.7 L 59.0 192.7 L 59.0 192.7 L 59.0 192.7 L 59.0 192.7 L 59.0 192.7 L 59.0 192.7 L 58.9 192.6 L 58.9 192.6 L 58.8 192.6 L 58.8 192.6 L 58.8 192.7 L 58.8 192.7 L 58.8 192.7 L 58.8 192.8 L 58.8 192.8 L 58.8 192.8 L 58.8 192.8 L 58.7 192.9 L 58.7 192.9 L 58.7 192.9 L 58.7 192.9 L 58.7 192.9 L 58.6 193.0 L 58.6 193.0 L 58.6 193.0 L 58.6 193.0 L 58.6 193.0 L 58.6 193.0 L 58.5 193.0 L 58.5 193.0 L 58.5 193.0 L 58.5 193.0 L 58.5 193.0 L 58.5 193.0 L 58.5 193.0 L 58.5 193.0 L 58.5 193.0 L 58.4 193.0 L 58.4 193.0 L 58.4 192.9 L 58.3 192.9 L 58.3 192.9 L 58.3 192.9 L 58.2 192.9 L 58.2 192.9 L 58.2 192.9 L 58.1 192.9 L 58.1 192.9 L 58.1 192.9 L 58.1 192.9 L 58.1 192.9 L 58.1 192.9 L 58.1 192.9 L 58.1 192.9 L 58.1 192.9 L 58.0 192.9 L 58.0 192.9 L 58.0 192.9 L 58.0 192.9 L 58.0 192.9 L 58.0 192.9 L 58.0 192.9 L 58.0 192.8 L 58.0 192.8 L 58.0 192.8 L 58.0 192.8 L 58.0 192.7 L 58.0 192.7 L 58.0 192.7 L 58.0 192.7 L 58.0 192.7 L 57.9 192.7 L 57.9 192.7 L 57.9 192.8 L 57.9 192.8 L 57.9 192.8 L 57.9 192.8 L 57.9 192.8 L 57.9 192.9 L 57.9 192.9 L 57.9 192.9 L 57.8 193.0 L 57.8 193.0 L 57.8 193.1 L 57.8 193.1 L 57.8 193.1 L 57.8 193.1 L 57.7 193.1 L 57.7 193.1 L 57.7 193.1 L 57.7 193.1 L 57.7 193.1 L 57.7 193.1 L 57.7 193.0 L 57.7 193.0 L 57.7 193.0 L 57.7 193.0 L 57.7 193.0 L 57.7 192.9 L 57.7 192.9 L 57.7 192.9 L 57.7 192.9 L 57.7 192.9 L 57.7 192.9 L 57.7 192.8 L 57.6 192.8 L 57.6 192.8 L 57.6 192.8 L 57.6 192.8 L 57.6 192.8 L 57.5 192.8 L 57.5 192.8 L 57.4 192.8 L 57.4 192.8 L 57.4 192.8 L 57.4 192.8 L 57.3 192.8 L 57.3 192.8 L 57.3 192.9 L 57.3 192.9 L 57.3 192.9 L 57.3 192.9 L 57.3 192.9 L 57.3 192.9 L 57.3 192.9 L 57.3 192.8 L 57.3 192.8 L 57.3 192.7 L 57.3 192.7 L 57.3 192.7 L 57.3 192.7 L 57.3 192.7 L 57.3 192.7 L 57.3 192.7 L 57.3 192.6 L 57.2 192.6 L 57.2 192.6 L 57.2 192.6 L 57.1 192.7 L 57.1 192.7 L 57.1 192.7 L 57.1 192.7 L 57.1 192.7 L 57.1 192.8 L 57.1 192.8 L 57.0 192.8 L 57.0 192.8 L 57.0 192.8 L 56.9 192.8 L 56.9 192.8 L 56.9 192.8 L 56.9 192.8 L 56.9 192.8 L 56.8 192.8 L 56.8 192.8 L 56.8 192.8 L 56.8 192.9 L 56.8 192.9 L 56.7 192.9 L 56.7 192.9 L 56.7 193.0 L 56.7 193.0 L 56.7 193.0 L 56.7 193.0 L 56.8 193.0 L 56.8 193.0 L 56.7 193.0 L 56.7 193.0 L 56.7 193.1 L 56.7 193.1 L 56.7 193.1 L 56.7 193.1 L 56.6 193.1 L 56.6 193.0 L 56.6 193.0 L 56.5 193.0 L 56.5 193.0 L 56.4 193.0 L 56.4 193.0 L 56.4 193.0 L 56.4 193.0 L 56.4 193.0 L 56.4 193.0 L 56.3 193.0 L 56.3 193.0 L 56.3 193.0 L 56.3 193.0 L 56.2 193.0 L 56.1 193.0 L 56.0 193.0 L 56.0 193.0 L 56.0 193.0 L 56.0 193.1 L 56.0 193.1 L 56.0 193.1 L 56.0 193.0 L 55.9 193.0 L 55.9 193.1 L 55.9 193.1 L 55.9 193.1 L 55.9 193.1 L 55.9 193.1 L 55.9 193.1 L 55.9 193.1 L 55.9 193.1 L 55.8 193.1 L 55.8 193.1 L 55.8 193.1 L 55.8 193.0 L 55.8 193.0 L 55.8 193.0 L 55.8 193.0 L 55.8 193.0 L 55.8 193.0 L 55.9 193.0 L 55.9 193.0 L 55.9 192.9 L 55.9 192.9 L 55.9 192.9 L 55.8 192.9 L 55.8 192.9 L 55.8 192.9 L 55.7 192.9 L 55.7 193.0 L 55.7 193.0 L 55.6 193.0 L 55.6 193.0 L 55.6 193.0 L 55.6 193.0 L 55.5 193.0 L 55.5 193.0 L 55.5 193.0 L 55.5 193.0 L 55.5 193.0 L 55.5 193.0 L 55.5 193.0 L 55.5 192.9 L 55.5 192.9 L 55.5 192.9 L 55.5 192.9 L 55.4 192.9 L 55.4 192.9 L 55.4 192.9 L 55.4 192.9 L 55.4 192.9 L 55.4 192.9 L 55.4 192.8 L 55.4 192.8 L 55.4 192.8 L 55.4 192.8 L 55.4 192.8 L 55.4 192.8 L 55.4 192.8 L 55.4 192.8 L 55.4 192.8 L 55.4 192.7 L 55.4 192.7 L 55.4 192.7 L 55.4 192.7 L 55.4 192.7 L 55.4 192.7 L 55.3 192.7 L 55.3 192.6 L 55.2 192.6 L 55.2 192.6 L 55.2 192.6 L 55.2 192.6 L 55.2 192.7 L 55.2 192.7 L 55.2 192.7 L 55.2 192.6 L 55.1 192.6 L 55.1 192.6 L 55.1 192.6 L 55.1 192.6 L 55.0 192.6 L 55.0 192.5 L 55.0 192.5 L 55.0 192.5 L 54.9 192.5 L 54.9 192.5 L 54.9 192.5 L 54.9 192.5 L 54.9 192.5 L 54.8 192.4 L 54.8 192.4 L 54.7 192.3 L 54.7 192.3 L 54.7 192.3 L 54.7 192.3 L 54.7 192.3 L 54.7 192.3 L 54.6 192.3 L 54.6 192.3 L 54.6 192.3 L 54.6 192.3 L 54.6 192.3 L 54.6 192.3 L 54.5 192.3 L 54.5 192.3 L 54.5 192.3 L 54.5 192.3 L 54.5 192.3 L 54.5 192.2 L 54.5 192.2 L 54.5 192.2 L 54.5 192.2 L 54.5 192.2 L 54.5 192.2 L 54.6 192.2 L 54.6 192.1 L 54.6 192.1 L 54.6 192.1 L 54.6 192.1 L 54.6 192.1 L 54.6 192.1 L 54.6 192.1 L 54.6 192.1 L 54.5 192.1 L 54.5 192.1 L 54.5 192.1 L 54.5 192.1 L 54.5 192.1 L 54.5 192.1 L 54.5 192.1 L 54.5 192.1 L 54.5 192.1 L 54.4 192.1 L 54.4 192.1 L 54.3 192.1 L 54.3 192.2 L 54.3 192.2 L 54.3 192.2 L 54.2 192.2 L 54.2 192.2 L 54.2 192.2 L 54.1 192.2 L 54.1 192.2 L 54.1 192.2 L 54.1 192.2 L 54.1 192.2 L 54.1 192.2 L 54.1 192.2 L 54.0 192.2 L 54.0 192.2 L 53.9 192.2 L 53.9 192.2 L 53.9 192.2 L 53.8 192.2 L 53.8 192.2 L 53.8 192.1 L 53.8 192.0 L 53.9 192.0 L 53.9 192.0 L 53.9 192.0 L 53.9 192.0 L 53.9 191.9 L 53.9 191.9 L 53.9 191.8 L 53.8 191.8 L 53.8 191.8 L 53.8 191.8 L 53.7 191.8 L 53.7 191.8 L 53.7 191.8 L 53.7 191.8 L 53.6 191.8 L 53.6 191.8 L 53.6 191.7 L 53.6 191.7 L 53.6 191.7 L 53.6 191.7 L 53.5 191.7 L 53.5 191.7 L 53.5 191.7 L 53.5 191.7 L 53.4 191.7 L 53.4 191.7 L 53.4 191.8 L 53.4 191.8 L 53.3 191.8 L 53.3 191.8 L 53.3 191.9 L 53.4 192.0 L 53.4 192.0 L 53.4 192.0 L 53.4 192.0 L 53.4 192.1 L 53.4 192.1 L 53.4 192.1 L 53.4 192.1 L 53.4 192.1 L 53.4 192.1 L 53.4 192.1 L 53.4 192.2 L 53.4 192.2 L 53.3 192.2 L 53.3 192.2 L 53.3 192.2 L 53.3 192.1 L 52.9 190.9 L 52.9 190.8 L 52.4 189.2 L 52.1 188.4 L 52.1 188.4 L 51.7 187.7 L 51.4 186.6 L 51.4 185.8 L 51.4 185.7 L 51.4 185.2 L 51.4 184.6 L 51.1 184.0 L 49.7 180.8 L 49.2 179.0 L 48.6 176.9 L 48.9 176.3 L 48.9 175.9 L 48.8 175.3 L 48.8 175.0 L 48.9 174.8 L 48.7 173.5 L 48.9 172.2 L 49.1 172.0 L 49.1 171.9 L 49.4 171.7 L 49.6 171.4 L 49.7 171.0 L 49.6 170.1 L 49.4 168.8 L 49.1 168.3 L 49.1 168.0 L 49.4 167.4 L 49.5 166.7 L 49.3 166.0 L 49.4 165.8 L 49.4 165.5 L 49.6 165.3 L 49.6 165.2 L 49.8 164.8 L 50.0 164.8 L 50.3 164.1 L 50.4 163.4 L 51.0 162.8 L 51.1 162.5 L 51.0 161.9 L 51.1 161.6 L 52.2 160.8 L 52.4 160.5 L 52.5 160.1 L 52.4 159.2 L 52.1 158.3 L 51.8 157.5 L 51.2 156.5 L 51.2 156.4 L 51.3 156.2 L 51.7 156.0 L 51.8 156.0 L 52.2 156.0 L 52.3 156.2 L 52.6 156.7 L 52.8 156.8 L 52.9 156.7 L 52.9 156.6 L 52.7 156.6 L 52.5 156.1 L 52.0 155.8 L 51.6 155.9 L 51.4 156.0 L 51.0 156.1 L 50.9 155.8 L 50.9 155.7 L 50.8 155.2 L 51.0 153.7 L 50.8 151.3 L 50.8 150.3 L 50.8 149.5 L 50.6 148.4 L 50.5 147.8 L 50.5 147.6 L 50.7 147.4 L 50.7 147.2 L 48.7 144.9 L 48.7 144.9 L 47.9 144.3 L 46.9 143.6 L 46.3 143.2 L 46.0 143.0 L 45.9 142.9 L 45.5 142.5 L 44.9 142.4 L 44.7 142.3 L 44.6 142.4 L 44.6 142.5 L 44.2 142.8 L 44.1 142.7 L 44.0 142.6 L 43.7 142.4 L 43.5 142.3 L 43.4 142.1 L 43.4 142.1 L 43.4 142.1 L 43.4 142.1 L 43.5 142.0 L 43.8 141.6 L 44.0 141.0 L 43.9 140.5 L 43.9 140.5 L 43.9 140.4 L 43.8 140.2 L 43.1 140.0 L 43.1 139.9 L 43.0 139.7 L 42.1 139.0 L 42.1 138.8 L 42.1 138.8 L 42.6 138.2 L 42.6 138.2 L 42.4 137.8 L 42.3 137.8 L 42.2 137.8 L 41.9 137.9 L 41.9 137.9 L 41.9 138.0 L 41.6 138.0 L 41.6 138.0 L 41.4 138.0 L 41.4 138.0 L 41.4 137.9 L 41.4 137.8 L 41.4 137.8 L 41.4 137.8 L 41.4 137.7 L 41.4 137.7 L 41.5 137.7 L 41.6 137.7 L 41.7 137.7 L 41.9 137.7 L 42.1 137.5 L 42.2 137.4 L 42.4 137.4 L 42.5 137.4 L 42.7 137.5 L 42.7 137.5 L 42.8 137.5 L 42.8 137.5 L 42.9 137.4 L 43.1 137.1 L 43.2 137.1 L 43.4 137.0 L 43.4 137.0 L 43.5 136.8 L 43.4 136.5 L 43.4 136.4 L 43.4 136.4 L 43.5 136.4 L 43.5 136.3 L 43.5 136.2 L 43.5 136.2 L 43.6 136.2 L 43.6 136.2 L 43.6 136.2 L 43.7 136.2 L 44.0 136.4 L 44.1 136.2 L 44.1 136.2 L 44.0 135.9 L 44.0 135.9 L 44.0 135.8 L 44.1 135.6 L 44.2 135.5 L 44.3 135.0 L 44.3 134.5 L 44.1 134.0 L 44.0 133.7 L 43.8 133.5 L 43.6 133.3 L 43.6 133.3 L 43.7 133.0 L 43.8 132.7 L 43.9 132.5 L 44.0 132.4 L 44.3 132.2 L 44.3 132.2 L 44.4 132.2 L 44.4 132.2 L 44.4 132.2 L 44.7 132.2 L 45.1 132.0 L 45.1 132.0 L 45.2 131.7 L 45.2 131.6 L 45.5 131.4 L 45.5 131.4 L 45.5 131.3 L 45.5 131.1 L 45.6 131.0 L 45.7 130.8 L 45.7 130.8 L 46.0 130.7 L 46.1 130.4 L 46.2 130.3 L 46.2 130.2 L 46.7 129.9 L 46.8 129.0 L 46.8 128.8 L 46.8 128.8 L 46.8 128.8 L 46.9 128.8 L 47.2 128.5 L 47.3 128.4 L 47.3 128.4 L 47.3 127.9 L 47.0 127.0 L 47.0 127.0 L 47.0 126.7 L 47.0 126.2 L 46.7 125.7 L 46.6 125.0 L 46.4 124.7 L 46.1 124.2 L 46.1 124.0 L 46.1 123.9 L 46.0 123.6 L 46.0 123.5 L 45.6 123.2 L 45.6 123.2 L 45.6 123.1 L 45.6 122.9 L 45.6 122.9 L 45.6 122.8 L 45.7 122.4 L 45.7 122.2 L 45.6 122.3 L 45.6 122.3 L 45.1 122.3 L 45.0 122.2 L 45.0 122.2 L 45.0 122.2 L 45.1 122.2 L 45.1 122.1 L 45.2 122.1 L 45.2 122.1 L 45.3 122.1 L 45.3 122.1 L 45.4 122.0 L 45.9 121.9 L 46.4 122.3 L 46.6 122.2 L 46.8 122.3 L 46.9 122.4 L 46.9 122.4 L 46.9 122.3 L 47.4 122.2 L 47.7 122.0 L 48.0 121.8 L 48.2 121.5 L 48.3 121.5 L 48.3 121.5 L 48.6 121.3 L 48.9 121.1 L 49.2 120.2 L 49.3 119.7 L 49.7 118.7 L 49.8 118.4 L 50.0 118.0 L 50.3 117.8 L 50.5 117.7 L 50.7 117.9 L 50.7 117.9 L 50.7 117.9 L 50.9 118.1 L 51.2 118.4 L 51.6 118.3 L 51.7 118.3 L 51.7 118.3 L 51.9 118.2 L 52.5 117.9 L 52.7 117.8 L 52.9 117.7 L 53.9 117.2 L 54.1 117.2 L 54.1 117.2 L 54.2 117.2 L 54.3 117.1 L 54.3 117.1 L 54.4 117.1 L 54.4 117.1 L 54.5 117.1 L 54.6 117.2 L 54.6 117.2 L 54.6 117.2 L 55.0 117.5 L 55.0 117.5 L 55.0 117.5 L 55.1 117.7 L 55.3 118.1 L 55.3 119.0 L 54.9 120.1 L 54.9 120.2 L 54.9 120.2 L 55.0 120.2 L 55.0 120.5 L 55.0 120.5 L 55.1 120.6 L 55.1 120.6 L 55.1 120.6 L 55.1 120.6 L 55.3 120.7 L 55.8 120.7 L 55.9 120.7 L 56.3 120.7 L 56.4 120.7 L 56.5 120.7 L 56.5 120.7 L 56.6 120.7 L 56.6 120.7 L 56.6 120.7 L 56.6 120.7 L 57.7 121.0 L 58.8 121.3 L 59.7 121.5 L 60.0 121.7 L 60.6 122.1 L 60.7 122.3 L 60.9 122.6 L 61.5 124.2 L 61.8 124.3 L 62.0 124.4 L 62.1 124.4 L 62.2 124.4 L 62.5 123.9 L 62.7 123.5 L 62.9 123.3 L 62.9 122.6 L 63.0 121.8 L 63.1 121.0 L 63.2 120.6 L 63.2 120.5 L 63.2 120.4 L 63.1 120.3 L 62.9 119.5 L 62.8 119.4 L 63.1 118.5 L 63.1 118.4 L 63.5 117.7 L 63.6 117.6 L 63.6 117.6 L 63.6 117.4 L 63.9 117.1 L 64.0 116.9 L 64.2 116.6 L 64.3 116.5 L 64.6 116.3 L 65.0 116.0 L 65.6 115.8 L 65.7 115.8 L 65.8 115.8 L 65.8 115.8 L 66.3 115.8 L 66.3 115.8 L 66.4 115.8 L 66.5 115.8 L 66.6 115.9 L 66.7 115.9 L 67.1 116.2 L 67.4 116.3 L 67.4 116.3 L 67.4 116.3 L 67.7 116.3 L 67.8 116.3 L 67.9 116.4 L 68.3 116.2 L 68.5 116.2 L 68.7 116.0 L 68.6 115.9 L 68.5 115.6 L 68.4 115.4 L 68.2 114.8 L 68.3 114.3 L 68.3 114.2 L 68.3 114.1 L 68.4 114.0 L 68.5 113.9 L 69.0 113.6 L 69.0 113.6 L 69.0 113.5 L 69.2 113.4 L 70.1 113.9 L 70.5 114.1 L 70.5 114.1 L 70.8 114.1 L 71.1 114.1 L 71.6 114.0 L 71.9 113.8 L 72.1 113.6 L 72.1 113.6 L 72.3 113.1 L 72.2 112.4 L 72.2 112.2 L 72.2 112.1 L 72.2 112.1 L 72.3 112.1 L 72.3 111.8 L 72.4 111.8 L 72.8 111.3 L 72.9 111.0 L 72.9 110.9 L 72.9 110.8 L 72.9 110.6 L 72.8 110.3 L 72.6 109.7 L 72.6 109.7 L 72.6 109.6 L 72.7 109.5 L 73.0 108.9 L 73.0 108.8 L 73.0 108.8 L 72.9 108.4 L 72.6 108.2 L 72.6 108.1 L 72.5 108.0 L 72.5 107.9 L 72.5 107.8 L 72.5 107.6 L 72.4 107.6 L 72.4 107.6 L 72.4 107.6 L 72.4 107.4 L 72.3 106.9 L 72.2 106.7 L 72.7 105.3 L 72.6 104.8 L 72.0 103.8 L 72.2 103.3 L 72.3 103.1 L 72.3 103.1 L 72.4 103.0 L 72.4 102.9 L 72.4 102.9 L 72.5 102.8 L 72.5 102.8 L 72.6 102.7 L 72.6 102.7 L 72.9 102.6 L 73.0 102.6 L 73.1 102.6 L 73.2 102.5 L 73.2 102.5 L 73.2 102.4 L 73.3 102.0 L 73.3 102.0 L 73.3 102.0 L 73.2 101.8 L 73.0 101.3 L 73.0 101.2 L 73.0 100.6 L 73.0 100.6 L 73.0 100.6 L 73.0 100.6 L 73.3 100.4 L 73.7 100.6 L 73.7 100.6 L 74.1 100.9 L 74.4 101.1 L 74.8 101.3 L 74.8 101.3 L 75.8 101.5 L 76.1 101.6 L 76.2 101.7 L 76.3 101.8 L 76.4 101.8 L 76.4 101.9 L 76.5 101.9 L 76.8 101.8 L 76.8 101.8 L 76.9 101.8 L 77.0 101.7 L 77.0 101.7 L 77.1 101.5 L 77.2 101.3 L 77.3 101.0 L 77.3 100.9 L 77.4 100.8 L 77.4 100.5 L 77.5 100.2 L 77.5 100.1 L 77.5 100.1 L 77.5 100.1 L 77.6 100.0 L 77.6 100.0 L 77.6 100.0 L 77.9 100.1 L 78.1 100.1 L 78.3 100.2 L 78.6 100.0 L 78.6 99.9 L 78.7 99.9 L 78.9 99.8 L 79.4 99.8 L 79.6 99.8 L 79.7 99.8 L 79.9 99.8 L 80.6 100.3 L 81.5 100.1 L 81.6 100.1 L 81.6 100.1 L 81.7 100.1 L 81.8 100.1 L 82.0 100.2 L 82.1 100.3 L 82.1 100.3 L 82.2 100.4 L 83.0 101.0 L 83.4 101.0 L 83.6 101.0 L 83.7 101.0 L 83.9 100.9 L 83.9 100.9 L 84.5 100.3 L 84.5 100.3 L 84.5 100.3 L 84.5 100.3 L 84.6 100.3 L 85.2 100.3 L 85.7 100.3 L 86.1 100.3 L 86.1 100.3 L 86.6 99.8 L 87.3 99.4 L 87.5 99.0 L 87.6 98.9 L 87.6 98.8 L 87.3 98.4 L 87.1 98.1 L 87.1 98.1 L 87.1 98.1 L 87.1 98.1 L 87.0 97.8 L 86.9 97.7 L 86.9 97.6 L 86.9 97.6 L 86.9 97.5 L 86.9 97.5 L 87.0 97.4 L 87.3 96.9 L 87.3 96.7 L 87.3 96.7 L 87.3 96.7 L 87.3 96.6 L 87.3 96.6 L 87.1 96.4 L 87.1 96.3 L 86.4 96.1 L 85.9 96.0 L 85.8 95.6 L 85.8 95.5 L 85.8 95.5 L 85.8 94.9 L 85.8 94.9 L 85.8 94.6 L 85.8 94.6 L 85.7 94.4 L 85.6 94.3 L 85.4 94.1 L 85.2 94.1 L 85.1 94.1 L 85.1 94.0 L 84.9 94.0 L 84.5 94.0 L 84.5 94.0 L 84.5 94.0 L 84.4 94.0 L 83.6 94.4 L 83.1 94.5 L 82.9 94.4 L 82.9 94.4 L 82.9 94.3 L 82.9 94.3 L 82.9 94.2 L 82.9 94.2 L 82.9 94.2 L 83.0 94.0 L 83.1 93.8 L 83.1 93.7 L 83.4 93.4 L 83.9 93.0 L 83.9 93.0 L 83.9 92.7 L 83.9 92.6 L 83.8 92.4 L 83.8 92.3 L 83.7 92.1 L 83.5 91.7 L 83.5 91.7 L 83.6 91.6 L 83.7 91.0 L 83.7 90.8 L 83.6 90.8 L 83.6 90.8 L 83.4 90.7 L 83.3 90.7 L 83.3 90.7 L 82.9 90.8 L 82.9 90.8 L 82.7 90.7 L 82.5 90.7 L 82.4 90.7 L 82.3 90.6 L 82.1 90.4 L 82.1 90.4 L 81.9 90.2 L 81.9 90.1 L 81.9 90.0 L 81.9 89.7 L 81.9 89.6 L 81.8 89.4 L 81.6 89.1 L 81.5 88.8 L 81.5 88.5 L 81.4 88.0 L 81.3 87.8 L 81.3 87.8 L 81.2 87.7 L 81.1 87.6 L 81.1 87.3 L 81.1 87.3 L 81.1 86.3 L 80.8 85.9 L 80.4 85.2 L 80.5 85.2 L 80.5 84.9 L 80.5 84.7 L 80.3 84.6 L 80.4 84.3 L 80.6 84.2 L 81.3 83.7 L 81.8 83.1 L 81.8 83.0 L 82.2 82.2 L 82.3 81.5 L 82.4 81.2 L 82.4 81.1 L 82.6 80.7 L 82.8 79.7 L 82.7 79.1 L 82.7 79.1 L 82.7 79.1 L 82.7 79.0 L 82.6 78.5 L 82.1 77.1 L 82.0 76.7 L 82.0 76.7 L 82.0 76.5 L 82.0 76.4 L 82.1 75.8 L 82.2 75.6 L 82.9 74.3 L 82.9 74.3 L 82.9 74.3 L 82.9 74.3 L 83.0 74.3 L 83.0 74.3 L 83.0 74.3 L 83.5 73.8 L 83.8 73.1 L 83.9 72.9 L 84.1 72.7 L 84.1 72.7 L 84.1 72.6 L 84.3 72.3 L 84.4 71.9 L 84.4 71.8 L 84.2 71.0 L 83.9 70.4 L 83.8 70.1 L 83.7 69.8 L 83.8 69.7 L 83.8 69.3 L 83.9 69.2 L 83.9 69.1 L 84.0 68.9 L 84.0 68.9 L 84.1 68.7 L 84.8 68.0 L 84.9 67.9 L 85.4 67.3 L 85.5 67.2 L 85.9 66.7 L 86.2 66.3 L 86.2 66.2 L 86.3 66.1 L 86.3 65.9 L 86.3 65.8 L 86.3 65.7 L 86.3 65.7 L 86.3 65.6 L 86.3 65.5 L 86.2 65.5 L 86.2 65.5 L 86.2 65.4 L 86.0 65.1 L 85.9 64.8 L 85.8 64.6 L 85.9 64.2 L 85.9 64.2 L 86.0 64.1 L 86.1 64.0 L 86.6 64.6 L 86.6 64.7 L 86.6 64.7 L 86.9 64.7 L 89.1 65.3 L 89.5 65.5 L 90.1 65.8 L 91.9 66.7 L 92.2 66.8 L 95.8 67.8 L 96.4 68.0 L 96.6 68.0 L 96.9 68.0 L 98.0 67.9 L 98.1 67.9 L 98.3 67.9 L 98.3 67.9 L 98.3 67.9 L 98.5 67.9 L 98.6 67.9 L 98.8 67.8 L 99.8 68.4 L 100.9 69.0 L 101.1 69.1 L 101.4 69.4 L 101.9 70.1 L 102.4 70.4 L 102.4 70.4 L 102.4 70.4 L 102.5 70.5 L 102.7 70.5 L 102.8 70.6 L 103.6 70.9 L 103.9 71.0 L 103.9 71.0 L 104.0 71.1 L 104.1 71.2 L 104.1 71.2 L 104.1 71.2 L 104.2 71.4 L 104.2 71.4 L 104.2 71.4 L 104.2 71.5 L 104.1 71.8 L 104.1 71.9 L 104.1 71.9 L 103.0 73.9 L 103.0 74.1 L 102.9 74.3 L 102.8 74.7 L 102.8 74.7 L 102.8 74.9 L 102.8 74.9 L 102.8 74.9 L 103.0 75.1 L 103.0 75.1 L 103.1 75.2 L 103.4 75.3 L 103.8 75.4 L 104.1 75.7 L 104.4 75.9 L 104.5 76.0 L 104.5 76.0 L 104.5 76.0 L 104.7 76.2 L 105.2 76.8 L 105.5 77.0 L 105.6 77.0 L 105.6 77.0 L 105.8 77.1 L 106.0 77.1 L 106.0 77.1 L 106.0 77.1 L 106.1 77.1 L 106.3 76.9 L 106.4 76.9 L 106.8 75.8 L 106.8 75.7 L 107.0 75.4 L 107.2 75.1 L 107.2 75.0 L 107.2 75.0 L 107.5 74.9 L 108.3 74.8 L 108.3 74.8 L 108.3 74.8 L 108.4 74.8 L 108.6 74.8 L 108.6 74.8 L 108.6 74.8 L 108.7 74.8 L 108.9 74.9 L 108.9 74.9 L 109.2 75.1 L 109.2 75.1 L 109.3 75.1 L 109.7 75.3 L 109.7 75.3 L 109.7 75.3 L 109.8 75.3 L 109.9 75.3 L 110.0 75.3 L 110.2 75.4 L 110.5 75.3 L 110.6 75.3 L 110.7 75.3 L 112.1 74.8 L 113.3 74.7 L 114.1 74.7 L 114.2 74.7 L 115.8 74.9 L 116.0 74.9 L 117.1 75.2 L 117.2 75.2 L 117.2 75.3 L 117.2 75.3 L 117.3 75.3 L 118.0 75.3 L 118.5 75.3 L 119.1 75.4 L 120.1 75.5 L 120.5 75.6 L 120.9 75.7 L 121.6 75.8 L 122.0 75.9 L 123.2 76.3 L 123.8 76.3 L 123.8 76.3 L 123.9 76.3 L 123.9 76.2 L 124.0 76.2 L 124.4 76.1 L 124.9 75.8 L 125.2 75.6 L 125.7 75.0 L 126.1 74.6 L 126.7 74.0 L 127.5 73.5 L 127.7 73.4 L 128.0 73.2 L 128.5 72.9 L 128.6 72.8 L 128.8 72.7 L 129.2 72.5 L 129.9 72.2 L 130.4 72.0 L 131.3 71.5 L 131.5 71.4 L 131.5 71.4 L 131.6 71.3 L 131.7 71.2 L 132.0 71.1 L 132.0 71.1 L 132.4 70.8 L 133.3 70.5 L 134.3 70.4 L 134.6 70.2 L 134.9 70.1 L 135.0 70.0 L 135.5 69.9 L 135.8 69.7 L 135.9 69.7 L 136.1 69.7 L 137.7 69.9 L 138.7 69.8 L 138.8 69.8 L 139.6 69.3 L 139.9 69.1 L 141.6 68.5 L 142.2 68.3 L 143.0 68.0 L 144.4 67.6 L 145.3 67.1 L 146.7 66.1 L 147.6 65.7 L 148.2 65.4 L 148.3 65.4 L 148.6 65.3 L 149.9 65.1 L 150.0 65.1 L 150.6 65.0 L 150.9 64.8 L 151.1 64.6 L 151.2 64.4 L 151.3 64.2 L 151.5 63.9 L 151.7 63.6 L 152.0 63.3 L 154.5 62.0 L 154.6 62.0 L 154.7 61.9 L 155.2 61.7 L 155.2 61.7 L 156.4 61.3 L 156.9 61.1 L 157.6 60.6 L 157.7 60.5 L 157.8 60.5 L 157.9 60.4 L 158.1 60.4 L 158.2 60.4 L 158.7 60.4 L 158.9 60.4 L 159.0 60.4 L 159.6 60.5 L 159.8 60.4 L 160.1 60.2 L 160.3 60.1 L 160.4 60.1 L 160.6 60.0 L 160.9 60.0 L 161.1 60.0 L 161.2 60.0 L 161.3 60.0 L 161.4 60.1 L 161.8 60.2 L 162.0 60.2 L 162.4 60.3 L 162.7 60.4 L 162.7 60.4 L 163.4 60.5 L 163.6 60.5 L 163.6 60.5 L 163.6 60.5 L 163.7 60.5 L 164.2 60.6 L 164.6 60.7 L 164.9 60.8 L 165.2 60.8 L 165.4 60.9 L 165.4 60.9 L 165.5 60.9 L 166.7 61.0 L 167.5 61.0 L 167.7 61.0 L 168.0 61.1 L 168.7 61.4 L 168.9 61.5 L 169.9 61.9 L 170.3 62.1 L 170.6 62.3 L 172.0 63.0 L 172.6 63.3 L 173.2 63.5 L 173.3 63.5 L 173.7 63.7 L 175.0 64.3 L 175.3 64.4 L 175.3 64.4 L 175.4 64.5 L 175.4 64.5 L 175.4 64.5 L 175.5 64.6 L 175.8 65.0 L 176.0 65.2 L 176.1 65.3 L 176.5 65.6 L 176.6 65.7 L 176.6 65.7 L 176.6 65.7 L 176.7 65.8 L 177.1 66.4 L 177.1 66.4 L 178.1 67.3 L 178.6 67.9 L 178.8 68.2 L 178.9 68.3 L 179.1 68.5 L 180.2 69.5 L 180.2 69.6 L 180.4 69.7 L 180.4 69.8 L 180.5 69.8 L 180.5 69.8 L 180.6 69.9 L 181.6 70.9 L 182.9 72.0 L 183.0 72.1 L 183.2 72.2 L 183.3 72.2 L 183.7 72.3 L 184.7 72.5 L 185.2 72.6 L 185.3 72.6 L 185.4 72.7 L 185.9 72.7 L 186.3 72.7 L 186.5 72.8 L 187.2 72.7 L 188.6 72.8 L 188.7 72.8 L 192.1 72.8 L 192.2 72.8 L 192.4 72.8 L 192.5 72.8 L 192.6 72.7 L 193.3 72.7 L 194.5 72.7 L 195.9 72.4 L 196.0 72.4 L 196.9 72.4 L 196.9 72.4 L 196.9 72.4 L 198.6 72.6 L 200.0 72.8 L 201.0 73.1 L 201.5 73.2 L 202.9 73.6 L 203.0 73.6 L 203.0 73.6 L 203.7 73.8 L 203.8 73.9 L 203.8 73.9 L 203.9 73.9 L 206.1 74.6 L 206.3 74.6 L 206.7 74.7 L 209.0 74.2 L 209.6 74.0 L 210.1 73.9 L 212.2 73.2 L 212.4 73.2 L 214.7 73.0 L 216.3 72.9 L 216.3 72.9 L 216.6 72.9 L 216.7 72.9 L 216.7 72.9 L 216.7 72.9 L 217.0 72.8 L 217.0 72.7 L 217.1 72.7 L 217.1 72.7 L 217.3 72.6 L 217.6 72.7 L 217.7 72.7 L 218.0 72.7 L 219.5 72.5 L 219.7 72.5 L 219.7 72.5 L 219.8 72.5 L 220.8 72.3 L 221.7 72.2 L 221.7 72.2 L 222.5 71.9 L 224.1 71.5 L 224.3 71.4 L 224.8 71.4 L 225.0 71.3 L 225.5 71.2 L 225.9 71.2 L 226.9 71.1 L 227.3 71.1 L 227.6 71.0 L 227.7 70.9 L 228.0 70.8 L 228.7 70.5 L 229.6 70.2 L 229.9 70.1 L 230.1 70.0 L 234.1 69.7 L 234.5 69.6 L 234.8 69.5 L 235.2 69.5 L 235.7 69.4 L 236.0 69.2 L 236.4 69.1 L 236.8 68.8 L 237.0 68.7 L 237.4 68.4 L 238.0 68.1 L 239.8 67.5 L 240.6 67.2 L 241.4 66.8 L 242.7 66.1 L 243.1 65.8 L 243.2 65.8 L 243.5 65.6 L 243.5 65.5 L 243.6 65.5 L 243.9 65.3 L 243.9 65.3 L 244.0 65.3 L 244.0 65.3 L 244.0 65.3 L 244.1 65.2 L 244.1 65.2 L 244.5 65.1 L 244.9 64.9 L 245.6 64.6 L 245.6 64.6 L 246.0 64.3 L 246.3 64.0 L 246.6 63.8 L 246.9 63.4 L 246.9 63.4 L 247.0 63.4 L 247.0 63.3 L 247.0 63.3 L 247.3 63.1 L 247.8 63.0 L 248.7 62.7 L 249.4 62.5 L 250.7 62.3 L 251.3 62.2 L 251.5 62.1 L 251.7 62.1 L 251.7 62.1 L 251.8 62.1 L 252.9 61.6 L 253.0 61.5 L 253.4 61.3 L 253.6 61.2 L 253.7 61.1 L 254.2 60.8 L 254.3 60.7 L 254.4 60.6 L 255.3 59.8 L 255.5 59.6 L 256.3 59.3 L 257.1 58.7 L 258.6 57.8 L 258.6 57.7 L 258.9 57.6 L 259.2 57.5 L 260.0 57.1 L 260.4 56.9 L 260.6 56.8 L 260.6 56.8 L 260.9 56.7 L 261.0 56.6 L 261.4 56.4 L 261.9 56.0 L 262.0 55.9 L 262.2 55.8 L 262.6 55.4 L 263.0 55.0 L 263.0 54.9 L 263.0 54.9 L 263.9 54.4 L 264.0 54.3 L 265.0 54.0 L 266.9 53.7 L 266.9 53.7 L 266.9 53.7 L 268.3 53.5 L 268.8 53.4 L 269.0 53.3 L 270.7 52.5 L 271.6 51.7 L 271.9 51.6 L 273.2 51.2 L 273.7 50.9 L 275.0 50.3 L 275.2 50.1 L 275.7 49.7 L 275.8 49.7 L 276.6 49.1 L 277.2 48.9 L 278.1 48.9 L 278.3 48.8 L 278.7 48.6 L 278.8 48.6 L 279.0 48.5 L 279.3 48.3 L 280.0 47.9 L 280.1 47.8 L 280.1 47.8 L 280.3 47.8 L 281.0 47.8 L 281.7 47.8 L 282.0 47.8 L 282.1 47.9 L 282.3 48.0 L 282.4 48.2 L 282.6 48.4 L 282.7 48.5 L 282.8 48.5 L 282.8 48.5 L 282.9 48.5 L 283.3 48.6 L 283.5 48.6 L 283.7 48.5 L 284.3 47.9 L 285.0 47.6 L 286.7 47.4 L 286.7 47.4 L 287.4 47.5 L 287.6 47.5 L 287.8 47.5 L 288.0 47.6 L 288.3 47.6 L 288.7 47.8 L 288.7 47.8 L 288.7 47.8 L 288.9 47.9 L 289.1 48.0 L 290.4 48.3 L 290.6 48.3 L 291.9 48.6 L 293.2 48.7 L 293.6 48.8 L 294.4 48.9 L 294.4 49.0 L 294.4 49.0 L 295.6 49.2 L 295.8 49.3 L 296.0 49.3 L 296.0 49.3 L 296.1 49.3 L 296.1 49.3 L 296.5 49.4 L 296.7 49.4 L 296.7 49.4 L 297.9 49.4 L 298.0 49.4 L 298.2 49.5 L 298.4 49.5 L 299.1 49.8 L 300.1 50.2 L 300.2 50.3 L 300.2 50.4 L 300.4 50.8 L 300.4 50.9 L 300.4 51.0 L 300.7 51.2 L 301.0 51.1 L 301.4 51.1 L 301.5 51.1 L 301.5 51.1 L 301.6 51.1 L 302.1 50.8 L 302.2 50.8 L 302.6 50.5 L 302.9 50.4 L 303.2 50.2 L 303.2 50.2 L 303.2 50.2 L 303.9 50.2 L 306.8 50.2 L 307.7 50.2 L 307.9 50.2 L 308.7 50.2 L 309.8 50.2 L 310.2 50.2 L 314.1 50.2 L 314.6 50.1 L 316.1 50.0 L 316.4 49.9 L 316.7 49.9 L 316.8 49.9 L 317.3 49.7 L 317.5 49.7 L 318.3 49.4 L 320.0 48.7 L 320.1 48.7 L 320.2 48.6 L 320.6 48.5 L 321.3 48.3 L 321.4 48.3 L 321.5 48.3 L 322.8 48.1 L 323.2 48.1 L 323.3 48.2 L 324.8 48.2 L 325.5 48.1 L 326.2 48.0 L 326.2 48.0 L 326.2 48.0 L 327.5 47.7 L 328.2 47.5 L 330.5 46.9 L 331.6 46.7 L 332.5 46.4 L 334.5 45.9 L 336.5 45.5 L 337.7 44.8 L 338.2 44.5 L 338.3 44.4 L 338.4 44.4 L 338.4 44.4 L 338.5 44.4 L 340.3 43.7 L 340.8 43.4 L 341.0 43.2 L 341.4 43.0 L 342.6 42.3 L 342.8 42.1 L 343.0 41.9 L 343.0 41.9 L 343.4 41.0 L 343.5 40.9 L 343.6 40.8 L 343.6 40.7 L 343.7 40.7 L 344.2 40.1 L 344.6 39.8 L 344.9 39.5 L 345.8 39.0 L 346.3 38.6 L 346.3 38.6 L 346.5 38.5 L 346.8 38.2 L 346.8 38.2 L 347.4 37.1 L 347.6 36.8 L 347.9 36.2 L 348.0 36.1 L 348.0 36.1 L 348.0 36.1 L 348.1 36.0 L 348.2 36.0 L 348.2 36.0 L 348.3 36.0 L 348.3 36.0 L 348.6 36.1 L 348.7 36.2 L 348.7 36.2 L 348.7 36.3 L 348.7 36.3 L 348.6 36.6 L 348.6 36.7 L 348.4 37.2 L 348.4 37.2 L 348.4 37.3 L 348.0 38.1 L 348.0 38.2 L 347.9 38.3 L 348.0 38.4 L 348.0 38.4 L 348.1 38.5 L 348.1 38.5 L 348.1 38.5 L 348.3 38.5 L 348.4 38.5 Z M 47.5 179.8 L 47.6 179.8 L 47.7 179.9 L 47.7 179.9 L 47.7 179.9 L 47.7 179.9 L 47.7 179.9 L 47.7 179.9 L 47.7 179.9 L 47.6 179.9 L 47.6 179.9 L 47.6 179.9 L 47.6 179.9 L 47.5 179.8 L 47.5 179.8 L 47.5 179.8 L 47.5 179.8 L 47.5 179.8 L 47.5 179.9 L 47.5 179.9 L 47.5 179.9 L 47.5 179.9 L 47.6 179.9 L 47.6 179.9 L 47.6 179.9 L 47.6 179.9 L 47.6 179.9 L 47.6 180.0 L 47.6 180.0 L 47.6 180.0 L 47.6 180.0 L 47.6 180.0 L 47.6 180.0 L 47.6 180.0 L 47.7 180.0 L 47.7 180.0 L 47.7 180.0 L 47.7 180.0 L 47.7 180.0 L 47.7 180.0 L 47.7 180.0 L 47.7 180.0 L 47.7 180.1 L 47.6 180.1 L 47.5 180.1 L 47.5 180.1 L 47.5 180.1 L 47.5 180.1 L 47.5 180.1 L 47.4 180.1 L 47.4 180.1 L 47.4 180.1 L 47.4 180.1 L 47.4 180.0 L 47.4 180.0 L 47.4 180.0 L 47.4 180.0 L 47.4 180.0 L 47.4 180.0 L 47.4 179.9 L 47.4 179.9 L 47.4 179.9 L 47.4 179.9 L 47.4 179.9 L 47.4 179.9 L 47.4 179.9 L 47.4 179.9 L 47.4 179.8 L 47.4 179.8 L 47.4 179.8 L 47.4 179.8 L 47.5 179.8 L 47.5 179.8 Z" fill="url(#land)" stroke="#f59e0b" stroke-width="2.2" stroke-linejoin="round" filter="url(#glow)"/>
</svg>
